<svg xmlns="http://www.w3.org/2000/svg" width="1024" height="1024" style="shape-rendering:geometricPrecision;text-rendering:geometricPrecision;image-rendering:optimizeQuality;fill-rule:evenodd;clip-rule:evenodd"><path fill="#fefefe" d="M182.5 97.5q2 1 0 0" style="opacity:.004"/><path fill="#ee468e" d="M179.5 363.5q2 1 0 0" style="opacity:.004"/><path fill="#ef4990" d="M169.5 364.5q2 1 0 0" style="opacity:.004"/><path fill="#a91973" d="m515.5 366.5-12 2q-1.937.356-3-1 7.207-2.877 15-1" style="opacity:.99"/><path fill="#45167a" d="M862.5 366.5q-5.5 2-11 0 5.55-1.887 11 0" style="opacity:1"/><path fill="#e3176e" d="M238.5 366.5q1.698-1.281 4 0 39.854 1.992 78 0a48 48 0 0 0 4.5-1q10.266 1.03 20.5 2a1090 1090 0 0 1-66 1h-44q2.619-.752 3-2" style="opacity:.996"/><path fill="#e1276e" d="M320.5 366.5q-38.146 1.992-78 0 38.769-1.09 78 0" style="opacity:.931"/><path fill="#df368d" d="M357.5 367.5q2 1 0 0" style="opacity:.004"/><path fill="#980f81" d="M599.5 366.5q4.24-1.308 8 0l16 2h-56a3001 3001 0 0 0 32-2" style="opacity:.997"/><path fill="#a633a6" d="M626.5 367.5q2 1 0 0" style="opacity:.004"/><path fill="#ea2387" d="M345.5 367.5q3.839-.452 7 1-3.352-.442-6 1a72.4 72.4 0 0 0-12 .5l1 1q-2.316.435-4 2 3.587 4.002 6 7-1.89 1.67-3.5.5l-4 4q-.834-3.143-1.5-.5a11.5 11.5 0 0 0 4 4q-1.13 2.23-2.5.5-.861 2.988-3.5 4.5 2.487 1.088 1.5 3.5-4.056-1.382-8-5-1.067 2.8 1.5 4.5a3.65 3.65 0 0 0-1 1.5q2.355.291 4.5 0 2.668 2.276-1.5 2.5 1.701 1.524-1 2l2 1q-1.905 1.35-3 3.5-1.388-1.712-2.5 0l-1-2q-.325 2.842-2.5 6a4.46 4.46 0 0 1-1.5-2 23 23 0 0 0-2 5l-1-1-1 4q-3.555-.942-7-1-4 4-8 0-3.436 1.992-2.5 5a10.2 10.2 0 0 1-3 3v37q-.946-3.604-3-7 4.842-5.286-2-6-.699 2.552 0 4.5l-6 1 2 2q-2.157 1.861-4.5 1.5l-2 6-3-5a26.6 26.6 0 0 0-3.5 2q.656 1.509 2 0 4.037 3.258-.5 6-2.23-1.13-.5-2.5-1.823-3.144-2.5.5a7.3 7.3 0 0 0-2-3 103 103 0 0 0-2 9 7.3 7.3 0 0 0-2-3q-1.112 1.712-2.5 0-3.301 2.334 0 3.5a8.4 8.4 0 0 1-4 .5q-.699 2.552 0 4.5a9.5 9.5 0 0 0-2.5 1.5 4.46 4.46 0 0 0-1.5-2q.306 1.543-1.5 3l-1-4q-4.272 3.89-6-2l-1 5q-2.469-2.332-1-5-2.523 2.048-.5 4.5l-3 1.5v-62a12.9 12.9 0 0 1 5 .5q-1.526 1.574-.5 3.5 1.67-1.817 3.5 0a4.46 4.46 0 0 0 2-1.5q-1.426-1.077-.5-2.5 2.81-.883 5 2 .955-2.704 3.5-4-.587 2.087 2.5 3a10.3 10.3 0 0 1 1.5-4 3.65 3.65 0 0 1 1.5 1l1-4q8.985 2.952 2.5-3.5 1.573-.739 3 .5a19.9 19.9 0 0 1 3.5-4l1 1q.466-1.863-1.5-3a29 29 0 0 0 1.5-4q4.78-2.799 9.5-5.5a15.5 15.5 0 0 0-5-3 18.6 18.6 0 0 0 3-8.5 4.93 4.93 0 0 1-3-.5q5.264-.756 9-2.5a32 32 0 0 1-3.5-4q-1.904 7.417-6 1l-1 2q-1.806-2.038-4.5-3 1.923-3.95 4 0-.017-1.412 1.5-2 .38 1.553 2.5 3 1.05-2.114 3-5 33.26.496 66-1" style="opacity:.998"/><path fill="#b81c99" d="M508.5 368.5q16.537-.983 25 13-3.783-.558-6 2.5 3.792 1.003 0 2.5a14.7 14.7 0 0 0-1.5 5q-3.56-4.182-4 1-.476-2.701-2-1a81 81 0 0 1-3.5 9.5q3.74 2.375-.5 4.5-4.976-4.155-5.5 3-2.45.702-3.5 3-1.6-2.675-4.5-1.5a6.8 6.8 0 0 1 3 1.5q-.505 2.888-4 4.5a4.46 4.46 0 0 1 2 1.5q-2 1.5 0 3-2.944.045-5 3.5 2.73.3 4 2.5-13.757-3.758-19-17 1.494-.129 2.5 1 .17-3.711 3-6 2.337 1.268 3-2 3.751 3.817 1.5-1.5.608-1.418 2-2-1.254-1.865 1-3.5a3.65 3.65 0 0 1 1.5 1q2.469-2.332 1-5a13.27 13.27 0 0 0 5.5-5q-2-3.5 0-7l4-1a4.46 4.46 0 0 1 1.5 2 9.5 9.5 0 0 1 1.5-2.5 17.3 17.3 0 0 1-7-3.5 29 29 0 0 0 1.5-4q.634 2.184 2.5 1.5-1.776-1.718 0-3.5" style="opacity:.998"/><path fill="#a9199d" d="M567.5 368.5h35q-2.625 1.46-4.5 4-1.806-1.457-1.5-3a605 605 0 0 0-3.5 3q-2.582-.167-.5-1.5-3-1-6 0l4 1q-2.588 1.297-5 2 2.639 1.47 5 2-1.749 3.053-5 1.5-1.904 2.52-5 3.5l1 1q-3.33 2.66-7 6.5 1.509 1.344 0 2a26 26 0 0 0-4.5-4q-.466 1.863 1.5 3a7.25 7.25 0 0 1-2 2.5q.174 1.902 1 4-1.787 1.047-3 2.5v-30" style="opacity:.998"/><path fill="#9f1aa0" d="M615.5 368.5h8a2058 2058 0 0 1 5 8 114 114 0 0 0 0 6.5q-1.926 1.026-3.5-.5-1.986 2.07-4 1-2.23 1.13-.5 2.5-8.034.444-2 5-1.13 2.23-2.5.5l-1.5 3a35 35 0 0 0 1 4.5l-1.5 1.5q-1.566-1.684-2-4a15.8 15.8 0 0 1-5.5 3.5q1.926 1.026 3.5-.5l1.5 1.5a15.3 15.3 0 0 0-4.5 1.5l-1 6q-.908-2.972-3-1-.892 2.098.5 4-2.233.05-4 1.5 1.526 1.574.5 3.5l-1-1q-.663 3.268-3 2a4.93 4.93 0 0 0-.5 3 4.93 4.93 0 0 1 3 .5q-2.743.41-4.5 2.5-1.088-2.487-3.5-1.5l2 2q-1.711 1.112 0 2.5-2.457 1.807-1 4l-3 2.5q1.26 2.5-1.5.5-.486 3.103-2.5 1a41.5 41.5 0 0 1-4 5.5q1.701 1.524-1 2l1 1q-2.363-.568-4.5.5a67 67 0 0 1-1.5 5.5q1.058 2.133 1 4-2.042-2.064-4.5-2.5-2.784-4.218-3.5-8v-23a71 71 0 0 1 2 4q1.902 1.392 4 .5a88 88 0 0 1 3-5l-2-1q2.25-1.25 3.5-3.5l1 3a11.53 11.53 0 0 1 4.5-3.5q-1.956-5.883 3.5-9.5 2.806 1.752 4.5-1.5l-2-3 5-4q-3.068-1.395-2.5-4.5 3.993 5.474 7.5-1a4.46 4.46 0 0 0-2-1.5q2.972-.908 1-3a20.5 20.5 0 0 1 2.5-4.5q2.668 4.164 3-1 2.317 1.982 3.5-1a7.25 7.25 0 0 0-2-2.5q1.89-1.67 3.5-.5a10.3 10.3 0 0 1 1.5-4q2.2.334 4.5 1 .926-1.423-.5-2.5 3.179-.513 1-2.5" style="opacity:.998"/><path fill="#721aaa" d="M767.5 368.5q.305 2.835-2 4.5-2.92-.803-6 1 3.575 2.115 5 6l-1.5 1.5q-.64-4.49-3.5-1.5 2.184.634 1.5 2.5l-5.5-.5q1.684 1.565 4 2-2.07 1.986-1 4-2.176-.394-4 .5 2.967 1.954 0 5-2.991 3.792-6 5.5 2.304 2.399 1.5 5.5-6.666-3.762-.5 1.5-2.83.244-4.5-2.5l-1.5 1.5 5 3q-4.244.072-7 3 2.678 2.39.5 4.5a21.3 21.3 0 0 0-4-5q-1.197 2.639.5 5a3.65 3.65 0 0 0 1.5-1 8.4 8.4 0 0 1 .5 4l-6-2q.79 6.682-4.5 2a12.9 12.9 0 0 0-.5 5q5.759.168 0 2a3.65 3.65 0 0 1-1.5-1q-.051 6.179-3 11-2.277.664-3.5-2a13.27 13.27 0 0 1-5 5.5l4 1a20.6 20.6 0 0 0-6 2q2.377.127 4 .5a14.8 14.8 0 0 0-4.5 3 3.65 3.65 0 0 0-1.5-1q-.894 1.824-.5 4-2.824-1.729-2.5-5-3.921-.334-5 3.5 3.675-1.689 6 2l-5.5-.5q-3.077 4.341 2 2 .466 1.863-1.5 3 2.086-.587 3 2.5a4.93 4.93 0 0 1-3 .5q.13 4.648-1.5 1a19.2 19.2 0 0 0-2.5 5q-.425 1.184-1.5 2-1.34-1.817-2.5 0-1.914 3.801-1 7.5-1.423.926-2.5-.5-3.742 3.239-5 8-1 2-2 0l1 4q-2.574-1.579-3 2-.513-3.179-2.5-1-1.494-.129-2.5 1-1.965-2.448-1.5-5 3.26-4.11 8.5-5 1.095-6.407 1.5-14a4349 4349 0 0 1 57-92.5 242 242 0 0 1 22-.5" style="opacity:.998"/><path fill="#6d1aac" d="M767.5 368.5h32v1q-2.758 1.512-4 4.5a4.93 4.93 0 0 1-3 .5q-.32 2.466 1 4.5-1.423.926-2.5-.5a6.98 6.98 0 0 1-3.5 2.5 4.46 4.46 0 0 1 2 1.5q-.57 2.281-.5 5-2.112-5.504-5 0-1.167 4.162 1.5 7.5-1.386 2.717-2.5-.5l-2.5 3q-1.509-.656 0-2-1.834-1.671-4-.5l2 1q.254 3.484-2 7 5.412 3.927 0 2.5-1.096 3.457-4 5.5 5.024.134 1.5 3.5a174 174 0 0 0-3.5-3q-.156 2.977-4 4.5l1 1a15.9 15.9 0 0 0-5.5 3.5 3.94 3.94 0 0 1-2-1q-1.25 2.25-3.5 3.5 2.911 1.114 5.5-.5 1.845 1.162 1 3-2.589-1.614-5.5-.5 3.67 1.843.5 4.5a6.55 6.55 0 0 0-3 3l-1-2q-1.647 2.201-4.5 2.5 3.237 1.968 1 5l-7 3q.612 4.292-2.5.5-2.637 1.454-1.5 3.5a4.93 4.93 0 0 1-3 .5q.274 3.654-2 6.5-.144 2.06.5 4.5-4.136-9.645-8.5.5l2 3q-2.911 1.114-5.5-.5-1.28 2.437-3 1 1.562 4.537-1.5 8.5.834.574 1 1.5-1.715 3-4.5 2-1.803 3.266-1.5 7a4.93 4.93 0 0 0-3 .5q4.312 1.342 1 2.5-1.721-.476-2.5-2a4.46 4.46 0 0 1-1.5 2q-1.548-2.31-4-1.5l2 1-4 1q5.518 2.1 0 5 1.233 3.848-2.5 6.5-.417-1.374-1.5-2-1.145-1.152-3-1.5l4-1q-3.141-1.882-3-5.5 1.926-1.788 3-6h5q-1.438-4.326-.5-8 1.676.247 3.5 1 1.794-.519 0-1.5 6-1 0-2-2.437-1.28-1-3-1.456-2.222-4-2.5a19.2 19.2 0 0 1 2.5-5q1.63 3.648 1.5-1a4.93 4.93 0 0 0 3-.5q-.914-3.087-3-2.5 1.966-1.137 1.5-3-5.077 2.341-2-2l5.5.5q-2.325-3.689-6-2 1.079-3.834 5-3.5-.324 3.271 2.5 5-.394-2.176.5-4a3.65 3.65 0 0 1 1.5 1 14.8 14.8 0 0 1 4.5-3q-1.623-.373-4-.5a20.6 20.6 0 0 1 6-2l-4-1a13.27 13.27 0 0 0 5-5.5q1.223 2.664 3.5 2 2.949-4.821 3-11 .621.686 1.5 1 5.759-1.832 0-2a12.9 12.9 0 0 1 .5-5q5.29 4.682 4.5-2l6 2a8.4 8.4 0 0 0-.5-4 3.65 3.65 0 0 1-1.5 1q-1.697-2.361-.5-5a21.3 21.3 0 0 1 4 5q2.178-2.11-.5-4.5 2.756-2.928 7-3l-5-3 1.5-1.5q1.67 2.744 4.5 2.5-6.166-5.262.5-1.5.804-3.101-1.5-5.5 3.009-1.708 6-5.5 2.967-3.046 0-5 1.824-.894 4-.5-1.07-2.014 1-4-2.316-.435-4-2l5.5.5q.684-1.866-1.5-2.5 2.86-2.99 3.5 1.5l1.5-1.5q-1.425-3.885-5-6 3.08-1.803 6-1 2.305-1.665 2-4.5" style="opacity:.998"/><path fill="#7741ab" d="M873.5 368.5q2 1 0 0" style="opacity:.004"/><path fill="#e53890" d="M368.5 369.5q2 1 0 0" style="opacity:.004"/><path fill="#a51a9e" d="M602.5 368.5h13q2.179 1.987-1 2.5 1.426 1.077.5 2.5a35 35 0 0 0-4.5-1 10.3 10.3 0 0 0-1.5 4q-1.61-1.17-3.5.5a7.25 7.25 0 0 1 2 2.5q-1.183 2.982-3.5 1-.332 5.164-3 1a20.5 20.5 0 0 0-2.5 4.5q1.972 2.092-1 3a4.46 4.46 0 0 1 2 1.5q-3.507 6.474-7.5 1-.568 3.105 2.5 4.5l-5 4 2 3q-1.694 3.252-4.5 1.5-5.456 3.617-3.5 9.5a11.53 11.53 0 0 0-4.5 3.5l-1-3q-1.25 2.25-3.5 3.5l2 1a88 88 0 0 0-3 5q-2.098.892-4-.5a71 71 0 0 0-2-4v-21q1.213-1.453 3-2.5-.826-2.098-1-4a7.25 7.25 0 0 0 2-2.5q-1.966-1.137-1.5-3a26 26 0 0 1 4.5 4q1.509-.656 0-2 3.67-3.84 7-6.5l-1-1q3.096-.98 5-3.5 3.251 1.553 5-1.5-2.361-.53-5-2 2.412-.703 5-2l-4-1q3-1 6 0-2.082 1.333.5 1.5a605 605 0 0 1 3.5-3q-.306 1.543 1.5 3 1.875-2.54 4.5-4" style="opacity:.998"/><path fill="#bd1d98" d="M498.5 368.5q.512-1.258 2-1 1.063 1.356 3 1h5q-1.776 1.782 0 3.5-1.866.684-2.5-1.5a29 29 0 0 1-1.5 4 17.3 17.3 0 0 0 7 3.5 9.5 9.5 0 0 0-1.5 2.5 4.46 4.46 0 0 0-1.5-2l-4 1q-2 3.5 0 7a13.27 13.27 0 0 1-5.5 5q1.469 2.668-1 5a3.65 3.65 0 0 0-1.5-1q-2.254 1.635-1 3.5-1.392.582-2 2 2.251 5.317-1.5 1.5-.663 3.268-3 2-2.83 2.289-3 6-1.006-1.129-2.5-1-9.588-26.095 15-39.5 1.857-1.035 0-1.5" style="opacity:.997"/><path fill="#661baa" d="M799.5 369.5q2.964 15.422 2 32-.925.166-1.5 1a93 93 0 0 1-2 17 14.5 14.5 0 0 0-4.5 4.5q1.578 2.574-2 3 2.883 2.19 2 5l-5-1q3.816 2.344 0 4.5a15 15 0 0 0 3 3.5q-1.13 2.23-2.5.5-1 4-2 0-1.461 3.567-2-1a16.7 16.7 0 0 1-4 4l-1-1q-1.158 2.023-3.5 2.5l1 1q-2.668-1.469-5 1l2 2q-1.711 1.112 0 2.5-2.96 1.247-6 .5 2.566 1.7 1.5 4.5-1.524-1.701-2 1l-1-1q-7.697 1.697-9.5 9.5-4.462.094-1-2-2.701-.476-1-2-.85-1.492-2-2.5-1.503 4.833-1 12h-1q-1.511 75.987-1 178a17247 17247 0 0 1-1.5-186q-.834 3.143-1.5.5l2-3q-.105-1.148-1-1.5-.865-1.91-2 0a61 61 0 0 1-6 9q-1.937-1.562 0-3.5-2.854-2.742-5.5.5-.374 4.015-3 7a10.3 10.3 0 0 0-1.5-4q-.08 1.78-1 4a4.46 4.46 0 0 1-1.5-2 7.3 7.3 0 0 1-2 3q-1.418-2.887-3-7a70 70 0 0 0-3.5 5q-.166-.926-1-1.5 3.062-3.963 1.5-8.5 1.72 1.437 3-1 2.589 1.614 5.5.5l-2-3q4.364-10.145 8.5-.5-.644-2.44-.5-4.5 2.274-2.846 2-6.5a4.93 4.93 0 0 0 3-.5q-1.137-2.046 1.5-3.5 3.112 3.792 2.5-.5l7-3q2.237-3.032-1-5 2.853-.299 4.5-2.5l1 2a6.55 6.55 0 0 1 3-3q3.17-2.657-.5-4.5 2.911-1.114 5.5.5.845-1.838-1-3-2.589 1.614-5.5.5 2.25-1.25 3.5-3.5a3.94 3.94 0 0 0 2 1 15.9 15.9 0 0 1 5.5-3.5l-1-1q3.844-1.523 4-4.5a174 174 0 0 1 3.5 3q3.524-3.366-1.5-3.5 2.904-2.043 4-5.5 5.412 1.427 0-2.5 2.254-3.516 2-7l-2-1q2.166-1.171 4 .5-1.509 1.344 0 2l2.5-3q1.114 3.217 2.5.5-2.667-3.338-1.5-7.5 2.888-5.504 5 0-.07-2.719.5-5a4.46 4.46 0 0 0-2-1.5 6.98 6.98 0 0 0 3.5-2.5q1.077 1.426 2.5.5-1.32-2.034-1-4.5a4.93 4.93 0 0 0 3-.5q1.242-2.988 4-4.5" style="opacity:.998"/><path fill="#ee2485" d="M235.5 368.5h44q-1.95 2.886-3 5-2.12-1.447-2.5-3-1.517.588-1.5 2-2.077-3.95-4 0 2.694.962 4.5 3l1-2q4.096 6.417 6-1a32 32 0 0 0 3.5 4q-3.736 1.744-9 2.5a4.93 4.93 0 0 0 3 .5 18.6 18.6 0 0 1-3 8.5 15.5 15.5 0 0 1 5 3 1109 1109 0 0 0-9.5 5.5 29 29 0 0 1-1.5 4q1.966 1.137 1.5 3l-1-1a19.9 19.9 0 0 0-3.5 4q-1.427-1.239-3-.5 6.485 6.452-2.5 3.5l-1 4a3.65 3.65 0 0 0-1.5-1 10.3 10.3 0 0 0-1.5 4q-3.087-.913-2.5-3-2.545 1.296-3.5 4-2.19-2.883-5-2-.926 1.423.5 2.5a4.46 4.46 0 0 1-2 1.5q-1.83-1.817-3.5 0-1.026-1.926.5-3.5a12.9 12.9 0 0 0-5-.5z" style="opacity:.998"/><path fill="#e3228b" d="M373.5 375.5q4.281 1.058 8 3-2.399 1.948-1.5 5a4.46 4.46 0 0 1 1.5-2q1.393 1.783 1 4a4.93 4.93 0 0 0-3 .5 23 23 0 0 1 5 2q-2.36 2.74-2.5 6.5l-3-6a21.4 21.4 0 0 0 0 5 11.3 11.3 0 0 1-3.5 1.5l3 1a6.55 6.55 0 0 0-3 3l1 3-6 4q2.337 4.67 5.5.5l.5 1q-3.926 1.755-7.5 6-1.7-2.567-4.5-1.5.883 2.81-2 5 3.644.677.5 2.5-1.077-1.426-2.5-.5-3.141 1.293-3 3.5-.972-2.473-3-4-.616 1.143-.5 3l-5-1-.5 1q3.46 1.488 6 4a183 183 0 0 1-13-3q-3.353.442-6-1 1.144-1.152 3-1.5-5.606-1.498 0-4-3.4-.414-7-2 7.77-4.161-1-7.5-2.197 1.663-3-1.5 1.864-5.035 2.5.5 3.139-2.769 4-7 1.34 1.817 2.5 0-1.392-1.902-.5-4l1 2q1.5-2 3 0-.296-4.96.5-9.5 2.864-.672 3.5 2.5a23.7 23.7 0 0 1 3.5-3 20 20 0 0 1-3-4.5 25.6 25.6 0 0 1 4-4.5q1.817-1.83 0-3.5 1.5-1 3 0l-1 1 3 1.5q6.768-.178 13.5 0l1-2q2.549 1.359 5.5 1" style="opacity:.998"/><path fill="#d5196f" d="M346.5 369.5q2.648-1.442 6-1h5q20.598 4.545 39 15 0 1-1 1a65.3 65.3 0 0 0-14-6q-3.719-1.942-8-3-12.93-4.748-27-6" style="opacity:.835"/><path fill="#4b1585" d="M851.5 366.5q5.5 2 11 0 16.392 3.19 24 18l1 6h-1q-12.428-31.242-44-18.5a51.2 51.2 0 0 0-8.5 8.5 78 78 0 0 0-4.5 11h-1q3.689-19.689 23-25" style="opacity:1"/><path fill="#ed3b8a" d="M201.5 375.5q2 1 0 0" style="opacity:.004"/><path fill="#9e1078" d="M515.5 366.5q27.397 9.177 23.5 38-3.16 11.14-10.5 18-11.229 8.433-25 6 37.008-2.774 33.5-40-1.005-4.01-3.5-7-8.463-13.983-25-13h-5z" style="opacity:1"/><path fill="#8531ae" d="M736.5 375.5q2 1 0 0" style="opacity:.004"/><path fill="#90167a" d="M599.5 366.5a3001 3001 0 0 1-32 2v24h-1q-.49-13.274 1-26 16.33-1.89 32 0" style="opacity:.998"/><path fill="#de218c" d="M381.5 378.5a65.3 65.3 0 0 1 14 6l6 4q-1.467.467-2 2 1.712 1.388 0 2.5 4.817 2.563.5 4.5-.759 4.756-5 7-1.207-3.601-2.5.5l2 2q-1.712 1.112 0 2.5a25.5 25.5 0 0 1-4 4.5l1 3q-8.93-.541-1 4l-2 1q1.87 2.241 0 4.5-.538-2.125-3.5-4a6.98 6.98 0 0 1-2.5 3.5q1.926 1.026 3.5-.5-.43 3.598-2.5 7a15 15 0 0 0 3 3.5l-5 1q-1.255 1.517-1 3.5l-2-1q-10.518-9.269-24-14-2.54-2.512-6-4l.5-1 5 1q-.116-1.857.5-3 2.028 1.527 3 4-.141-2.207 3-3.5 1.423-.926 2.5.5 3.144-1.823-.5-2.5 2.883-2.19 2-5 2.8-1.067 4.5 1.5 3.574-4.245 7.5-6l-.5-1q-3.163 4.17-5.5-.5l6-4-1-3a6.55 6.55 0 0 1 3-3l-3-1a11.3 11.3 0 0 0 3.5-1.5 21.4 21.4 0 0 1 0-5l3 6q.14-3.76 2.5-6.5a23 23 0 0 0-5-2 4.93 4.93 0 0 1 3-.5q.393-2.217-1-4a4.46 4.46 0 0 0-1.5 2q-.899-3.052 1.5-5" style="opacity:.997"/><path fill="#9919a0" d="M628.5 376.5a169 169 0 0 0 9 15q-1.348 2.241 1 4.5-4 1 0 2-1.75.75-2.5 2.5-1-2-2 0l-1-2-1 6a15.3 15.3 0 0 0-1.5-4.5q-3.3.876-6.5-.5l-1 8q-2.951 1.846.5 3 3.365-1.324 5 2.5-2.244.76-3.5-1.5-1.67 1.89-.5 3.5-1 3-4 4 2.487 1.088 1.5 3.5-2.486-3.1-5-4-1.922-.178-3.5 1.5 3.601 3.74 0 7l2 1q-3.562 4.43-7.5.5l-1.5 1.5q2.013 3.023 1.5 6.5-2.393 3.936-6.5 6a7.25 7.25 0 0 0 2 2.5l-4 2a7.3 7.3 0 0 1 3 2q-1.988-.223-3.5.5l-3-3a26.6 26.6 0 0 0-3.5 2q2.005.36 5 1.5 4.023 3.476-.5 6.5l-1-3q-1.98.449-4.5.5l2 1q-2 1.5 0 3-4.567.539-1 2a11.3 11.3 0 0 0-1.5 3.5q-.425-4.864-2.5-1-3.82-2.22-3.5 2 4.82 3.46-1.5 5 1.635 1.663 0 3-1.388 1.712-2.5 0a4.93 4.93 0 0 0-.5 3q-2.436.21-3.5-2-2.447 2.971.5 6-1.16 1.817-2.5 0-2.469 2.332-1 5-3.053-3.618-3 2-1.517-1.255-3.5-1v-43q.716 3.782 3.5 8 2.458.436 4.5 2.5.058-1.867-1-4a67 67 0 0 0 1.5-5.5q2.137-1.068 4.5-.5l-1-1q2.701-.476 1-2a41.5 41.5 0 0 0 4-5.5q2.014 2.103 2.5-1 2.76 2 1.5-.5l3-2.5q-1.457-2.193 1-4-1.711-1.388 0-2.5l-2-2q2.412-.987 3.5 1.5 1.757-2.09 4.5-2.5a4.93 4.93 0 0 0-3-.5 4.93 4.93 0 0 1 .5-3q2.337 1.268 3-2l1 1q1.026-1.926-.5-3.5 1.767-1.45 4-1.5-1.392-1.902-.5-4 2.092-1.972 3 1l1-6a15.3 15.3 0 0 1 4.5-1.5l-1.5-1.5q-1.574 1.526-3.5.5a15.8 15.8 0 0 0 5.5-3.5q.434 2.316 2 4l1.5-1.5a35 35 0 0 1-1-4.5l1.5-3q1.37 1.73 2.5-.5-6.034-4.556 2-5-1.73-1.37.5-2.5 2.014 1.07 4-1 1.574 1.526 3.5.5a114 114 0 0 1 0-6.5" style="opacity:.998"/><path fill="#b21b9a" d="M533.5 381.5q2.495 2.99 3.5 7 3.508 37.226-33.5 40-1.937.356-3-1 1.488.258 2-1-1.27-2.2-4-2.5 2.056-3.455 5-3.5-2-1.5 0-3a4.46 4.46 0 0 0-2-1.5q3.495-1.612 4-4.5a6.8 6.8 0 0 0-3-1.5q2.9-1.175 4.5 1.5 1.05-2.298 3.5-3 .524-7.155 5.5-3 4.24-2.125.5-4.5a81 81 0 0 0 3.5-9.5q1.524-1.701 2 1 .44-5.182 4-1a14.7 14.7 0 0 1 1.5-5q3.792-1.497 0-2.5 2.217-3.058 6-2.5" style="opacity:.998"/><path fill="#83137f" d="M626.5 368.5a157 157 0 0 0 15 25 5.73 5.73 0 0 0 1 3q-1 0-1 1-2.538-2.558-4-6a169 169 0 0 1-9-15 2058 2058 0 0 0-5-8l-16-2a30.4 30.4 0 0 1 8.5-1q5.567.714 10.5 3" style="opacity:.863"/><path fill="#db3494" d="M404.5 383.5q2 1 0 0" style="opacity:.004"/><path fill="#703bac" d="M886.5 383.5q2 1 0 0" style="opacity:.004"/><path fill="#dc3294" d="M403.5 385.5q2 1 0 0" style="opacity:.004"/><path fill="#7d2bab" d="M730.5 385.5q2 1 0 0" style="opacity:.004"/><path fill="#5a1082" d="M803.5 367.5q-1 0-1 1h-35a242 242 0 0 0-22 .5 4349 4349 0 0 0-57 92.5q-1.062 2.817-3.5 5-.705-1.615.5-3a13247 13247 0 0 0 37-62 433 433 0 0 0 21-34q8.328-1.031 16.5-2 21.291 1.884 43 0 .696.891.5 2" style="opacity:1"/><path fill="#b7289f" d="M539.5 387.5q2 1 0 0" style="opacity:.004"/><path fill="#5c1dad" d="M886.5 390.5q2.83 30.957-27 37-23.246-2.497-29.5-25a61 61 0 0 1-.5-11 78 78 0 0 1 4.5-11q3.75-4.75 8.5-8.5 31.572-12.742 44 18.5" style="opacity:.998"/><path fill="#8e1281" d="M567.5 366.5q-1.49 12.726-1 26 .498 66.255-1 132-.5-79.506 1-159 .91.186 1 1" style="opacity:.617"/><path fill="#8228ab" d="M727.5 390.5q2 1 0 0" style="opacity:.008"/><path fill="#992ba4" d="M641.5 392.5q2 1 0 0" style="opacity:.004"/><path fill="#e62288" d="M346.5 369.5q14.07 1.252 27 6-2.951.359-5.5-1l-1 2a255 255 0 0 0-13.5 0l-3-1.5 1-1q-1.5-1-3 0 1.817 1.67 0 3.5a25.6 25.6 0 0 0-4 4.5 20 20 0 0 0 3 4.5 23.7 23.7 0 0 0-3.5 3q-.636-3.172-3.5-2.5-.796 4.54-.5 9.5-1.5-2-3 0l-1-2q-.892 2.098.5 4-1.16 1.817-2.5 0-.861 4.231-4 7-.636-5.535-2.5-.5.803 3.163 3 1.5 8.77 3.339 1 7.5 3.6 1.586 7 2-5.606 2.502 0 4-1.856.348-3 1.5h-7q-17.733-1.492-36-1-.936-3.008 2.5-5 4 4 8 0 3.445.058 7 1l1-4 1 1a23 23 0 0 1 2-5 4.46 4.46 0 0 0 1.5 2q2.175-3.158 2.5-6l1 2q1.112-1.712 2.5 0 1.095-2.15 3-3.5l-2-1q2.701-.476 1-2 4.168-.224 1.5-2.5-2.145.291-4.5 0a3.65 3.65 0 0 1 1-1.5q-2.567-1.7-1.5-4.5 3.944 3.618 8 5 .987-2.412-1.5-3.5 2.639-1.512 3.5-4.5 1.37 1.73 2.5-.5a11.5 11.5 0 0 1-4-4q.666-2.643 1.5.5l4-4q1.61 1.17 3.5-.5-2.413-2.998-6-7 1.684-1.565 4-2l-1-1a72.4 72.4 0 0 1 12-.5" style="opacity:.997"/><path fill="#6a27ac" d="M825.5 395.5q1.61 1.126.5 3a4.93 4.93 0 0 1-.5-3" style="opacity:.004"/><path fill="#c61672" d="M396.5 383.5a33 33 0 0 0 7 3 199 199 0 0 0 13 9.5 195 195 0 0 0 12 11.5v2l-5-4a36.9 36.9 0 0 0-11-9q-4.624-5.112-11-8l-6-4q1 0 1-1" style="opacity:.953"/><path fill="#ee3f8d" d="M145.5 400.5q2 1 0 0" style="opacity:.008"/><path fill="#7d28a7" d="M722.5 401.5q-1-2 0 0" style="opacity:.004"/><path fill="#6728aa" d="M825.5 400.5q2 1 0 0" style="opacity:.004"/><path fill="#ef3f8f" d="M145.5 402.5q1.538.595.5 2a2.43 2.43 0 0 1-.5-2" style="opacity:.012"/><path fill="#6624aa" d="M826.5 404.5q2 1 0 0" style="opacity:.004"/><path fill="#6425a9" d="M828.5 406.5q-1 1 0 0" style="opacity:.004"/><path fill="#9127a5" d="M650.5 407.5q2 1 0 0" style="opacity:.008"/><path fill="#ec408d" d="M148.5 408.5q-1 1 0 0" style="opacity:.004"/><path fill="#7d28a9" d="M715.5 408.5q2 1 0 0" style="opacity:.004"/><path fill="#6019ab" d="M801.5 401.5v62q-1.235-5.216-1.5-11-1.722 6.095-1 11a347 347 0 0 0-5 5l-1-2q-2.504 2.646-3.5 6a10.3 10.3 0 0 1-1.5-4q-.765 3.757-4.5 4.5 1.526 1.574.5 3.5-1-2-2 0-1.037-3.587-3 0a57 57 0 0 0-7.5-5q-2.254 1.635-1 3.5-3.522.165-4.5 3.5-2.468-.29-5.5-.5a10.8 10.8 0 0 0-3-2.5l-3 4a111 111 0 0 1-1-21q1.15 1.008 2 2.5-1.701 1.524 1 2-3.462 2.094 1 2 1.803-7.803 9.5-9.5l1 1q.476-2.701 2-1 1.066-2.8-1.5-4.5 3.04.747 6-.5-1.711-1.388 0-2.5l-2-2q2.332-2.469 5-1l-1-1q2.342-.477 3.5-2.5l1 1a16.7 16.7 0 0 0 4-4q.539 4.567 2 1 1 4 2 0 1.37 1.73 2.5-.5a15 15 0 0 1-3-3.5q3.816-2.156 0-4.5l5 1q.883-2.81-2-5 3.578-.426 2-3a14.5 14.5 0 0 1 4.5-4.5 93 93 0 0 0 2-17q.575-.834 1.5-1" style="opacity:.998"/><path fill="#c42998" d="M479.5 410.5q2 1 0 0" style="opacity:.008"/><path fill="#ac259e" d="M563.5 411.5q2 1 0 0" style="opacity:.004"/><path fill="#d9208e" d="M401.5 388.5q6.376 2.888 11 8-.657-.098-1 .5a19.9 19.9 0 0 0 4 3.5q-1.712 1.388 0 2.5-2.885 1.9-5 0l1-1a8.2 8.2 0 0 1-4-2.5 4.46 4.46 0 0 0-2 1.5 6.55 6.55 0 0 1 3 3q-2.218 1.79-4 1.5 1.237 1.329 3 1a4.93 4.93 0 0 1-.5 3l-7-2-.5 1q2.173 5.634-1.5 11-.981-1.794-1.5 0a4.46 4.46 0 0 0 2 1.5q-.656 3.326 0 7-1.5 3-3 0a3.65 3.65 0 0 0 1-1.5 26.6 26.6 0 0 0-3.5-2q-.684 1.866 1.5 2.5a6.8 6.8 0 0 0-3 1.5q.656 1.509 2 0a55 55 0 0 1 2 4.5q-2.304 2.498-5 6.5l3 2.5q-3.138 1.43-1 4-1.595 1.782-4 1.5a3742 3742 0 0 0-8-7q-.255-1.983 1-3.5l5-1a15 15 0 0 1-3-3.5q2.07-3.402 2.5-7-1.574 1.526-3.5.5a6.98 6.98 0 0 0 2.5-3.5q2.962 1.875 3.5 4 1.87-2.259 0-4.5l2-1q-7.93-4.541 1-4l-1-3a25.5 25.5 0 0 0 4-4.5q-1.712-1.388 0-2.5l-2-2q1.293-4.101 2.5-.5 4.241-2.244 5-7 4.317-1.937-.5-4.5 1.712-1.112 0-2.5.533-1.533 2-2" style="opacity:.998"/><path fill="#c52998" d="M480.5 412.5q2 1 0 0" style="opacity:.004"/><path fill="#8b19a3" d="M649.5 412.5a35.4 35.4 0 0 1 4 6 19.6 19.6 0 0 0-2 3.5q5.238 2.5-.5 5.5-.926 1.423.5 2.5-5.188 1.374-3 6-2.701.476-1 2-2.25 3.25-3.5-.5-1.026 1.926.5 3.5-1.13 2.23-2.5.5-.299 2.853-2.5 4.5 1.701 1.524-1 2 .686.621 1 1.5-3.773 1.05-2 4a20.2 20.2 0 0 1-6 1.5 7.25 7.25 0 0 0-2 2.5 14.8 14.8 0 0 1 3 5.5q.338 4.114-1 8.5-1.937-.356-3 1a97 97 0 0 0-7-11q.473-3.557 2-8-1.458-5.823 2-1.5 3.195 2.346 6 0l-5-1a19.9 19.9 0 0 0 4-3.5q-.834-3.014-4-6a12.4 12.4 0 0 1 5-4.5l-1-1q1.984-1.224 2-3.5 4.424-3.864 7-9.5v-6q1.764-2.871 3 .5 5.227-1.773 7-5" style="opacity:.998"/><path fill="#6a38a9" d="M884.5 414.5q2 1 0 0" style="opacity:.004"/><path fill="#dd0e61" d="M237.5 366.5h1q-.381 1.248-3 2v103a2757 2757 0 0 1-1-105z" style="opacity:1"/><path fill="#e21d66" d="M201.5 376.5q14.332 21.907-1.5 43-23.886 20.592-46-2a1596 1596 0 0 0-5.5-9q-6.25-28.746 20-41.5 19.327-4.79 33 9.5" style="opacity:.976"/><path fill="#ee2683" d="M192.5 372.5q16.365 9.779 13.5 29-6.452 29.613-36.5 24.5-8.147-2.566-13-9.5 2.17-1.67 5-.5l-1 3q2.25 3.25 3.5-.5 3.201 3.875 5.5-1 3.816 1.852 0 3.5 3.995 2.865 5-2.5a6.8 6.8 0 0 0-3-1.5q3.313-2.536 5.5.5l.5-1q-1.821-2.353-5-2.5a4.93 4.93 0 0 1 3-.5 25 25 0 0 0-.5-7l-2 6q-4.025-2.09-.5-4l-1-1q-1.68 2-4 1.5-.266-3.553 1-7.5-1.655-.747-3-1 6.238-5.83 9 1a4.46 4.46 0 0 0 1.5-2q.907 2.972 3 1 .813 3.202 3 7l1.5-3q-3.869-2.907 0-5.5-5.791-.853 0-2.5-5.595-.361-2.5-6 2.5 4 5 0 1.574 1.526 3.5.5a15.3 15.3 0 0 1-5-4.5q.519-1.794 1.5 0a4.93 4.93 0 0 0 .5-3 4.93 4.93 0 0 0 3-.5q-1.794-.981 0-1.5a135 135 0 0 0 2.5 7q1.077-1.426 2.5-.5-6.507 1.64-1.5 5.5l2-4 1 2a11.3 11.3 0 0 1 1.5-3.5q-4.137-3.603 1-6a25.9 25.9 0 0 0-5.5-6.5q-1.809 3.84-4.5 1.5.765-2.74 2.5-.5.315-2.337 1.5-4" style="opacity:1"/><path fill="#f02882" d="M192.5 372.5q-1.185 1.663-1.5 4-1.735-2.24-2.5.5 2.691 2.34 4.5-1.5a25.9 25.9 0 0 1 5.5 6.5q-5.137 2.397-1 6a11.3 11.3 0 0 0-1.5 3.5l-1-2-2 4q-5.007-3.86 1.5-5.5-1.423-.926-2.5.5a135 135 0 0 1-2.5-7q-1.794.519 0 1.5a4.93 4.93 0 0 1-3 .5 4.93 4.93 0 0 1-.5 3q-.981-1.794-1.5 0a15.3 15.3 0 0 0 5 4.5q-1.926 1.026-3.5-.5-2.5 4-5 0-3.095 5.639 2.5 6-5.791 1.647 0 2.5-3.869 2.593 0 5.5l-1.5 3q-2.187-3.798-3-7-2.093 1.972-3-1a4.46 4.46 0 0 1-1.5 2q-2.762-6.83-9-1 1.345.253 3 1-1.266 3.947-1 7.5 2.32.5 4-1.5l1 1q-3.525 1.91.5 4l2-6q.745 3.465.5 7a4.93 4.93 0 0 0-3 .5q3.179.147 5 2.5l-.5 1q-2.187-3.036-5.5-.5a6.8 6.8 0 0 1 3 1.5q-1.005 5.365-5 2.5 3.816-1.648 0-3.5-2.299 4.875-5.5 1-1.25 3.75-3.5.5l1-3q-2.83-1.17-5 .5-9.872-11.559-6.5-27 9.645-25.657 36.5-20.5 3.788.635 6 3.5" style="opacity:.997"/><path fill="#ab1477" d="M498.5 368.5q1.857.465 0 1.5-24.588 13.405-15 39.5 5.243 13.242 19 17-.512 1.258-2 1h-2q-29.45-17.112-14.5-48 5.277-8.246 14.5-11" style="opacity:.749"/><path fill="#700d7e" d="M642.5 396.5a56.8 56.8 0 0 0 8 12 6643 6643 0 0 0 9 17v2a62.7 62.7 0 0 1-6-9 35.4 35.4 0 0 0-4-6 2809 2809 0 0 0-8-15q0-1 1-1" style="opacity:.996"/><path fill="#6624a9" d="M833.5 416.5q-1 1 0 0" style="opacity:.008"/><path fill="#cb2e96" d="M438.5 417.5q2 1 0 0" style="opacity:.004"/><path fill="#d01f92" d="m423.5 405.5 5 4a18.3 18.3 0 0 0 4 6 61 61 0 0 0-2 5.5q2.04 2.906-1 5 1.846 1.774 0 3.5a21 21 0 0 0-1-2.5q-1.838-.845-3 1 5.746 4.743-1 4.5.329 1.763-1 3-1.344-1.509-2 0a32.4 32.4 0 0 1 3 4.5q-2.437 1.28-1 3-1.724 2.616-4 .5-1.5.5-2 2a19 19 0 0 0 3 5q-1.697 1.656-2.5-1l-1 3q-2.5-1.26-.5 1.5-1.75.75-2.5 2.5l-1-2q-.75 1.75-2.5 2.5 2.184.634 1.5 2.5a29.5 29.5 0 0 1-4.5 2.5 37 37 0 0 1 2 4.5q-.519 1.794-1.5 0a15.3 15.3 0 0 1-1.5 4.5 67 67 0 0 1 1 8q-.644 1.447-2 1.5a648 648 0 0 1-3-8l-6-14q.465-1.857 1.5 0 .749-6.768 5.5-11.5l-2-1q1.296-3.107 4-5l-3-1 6-2q2-1 0-2l2-1a7.3 7.3 0 0 1-3-2q2-1 0-2l2-1q-1.526-1.574-.5-3.5 1.524 1.701 2-1l1 2q1.745-3.223 3.5-6.5-1.237-5.615 0-12 3.97-.473 2-3.5a4.46 4.46 0 0 1 1.5-2q1.593 3.442 4.5 2" style="opacity:.998"/><path fill="#d41764" d="M328.5 421.5h7q2.647 1.442 6 1-1.602 1.401-4 1-20.69-.295-41-1 12.935-1.516 32-1" style="opacity:.946"/><path fill="#aa249f" d="M563.5 421.5q2 1 0 0" style="opacity:.004"/><path fill="#461581" d="M886.5 390.5h1q2.106 12.378-3 24-12.696 17.237-34 14-9.707-4.119-17-12a1725 1725 0 0 0-5-10q-1.716-7.581 0-15h1a61 61 0 0 0 .5 11q6.254 22.503 29.5 25 29.83-6.043 27-37" style="opacity:.973"/><path fill="#b91374" d="m428.5 407.5 10 11a2118 2118 0 0 0 7 12q-1 0-1 1a309 309 0 0 1-3-4 61 61 0 0 0-9-12 18.3 18.3 0 0 1-4-6z" style="opacity:1"/><path fill="#b22699" d="M528.5 422.5q2 1 0 0" style="opacity:.004"/><path fill="#cb1e93" d="M432.5 415.5a61 61 0 0 1 9 12q-3.367 2.875-1 7a67 67 0 0 1-2 5.5l2 2q-2.064 3.663-5.5 2.5l-1 3q-1-2-2 0-.407 4.398-3.5 7.5l1 1q-4.719.165-3 4-.913 3.087-3 2.5a10.3 10.3 0 0 0 4 1.5l-3 1.5a854 854 0 0 0-2 15 40 40 0 0 0-4 4.5l1 1q-2.925-.184-5 3 4 1 0 2 1.648 3.747-.5 7.5-1.276-4.669-3.5-1a31 31 0 0 0-2-2 571 571 0 0 0-3-15q1.356-.053 2-1.5a67 67 0 0 0-1-8 15.3 15.3 0 0 0 1.5-4.5q.981 1.794 1.5 0a37 37 0 0 0-2-4.5 29.5 29.5 0 0 0 4.5-2.5q.684-1.866-1.5-2.5 1.75-.75 2.5-2.5l1 2q.75-1.75 2.5-2.5-2-2.76.5-1.5l1-3q.803 2.656 2.5 1a19 19 0 0 1-3-5q.5-1.5 2-2 2.276 2.116 4-.5-1.437-1.72 1-3a32.4 32.4 0 0 0-3-4.5q.656-1.509 2 0 1.329-1.237 1-3 6.746.243 1-4.5 1.162-1.845 3-1 .645 1.38 1 2.5 1.846-1.726 0-3.5 3.04-2.094 1-5a61 61 0 0 1 2-5.5" style="opacity:.998"/><path fill="#d3166d" d="M341.5 422.5a183 183 0 0 0 13 3q13.482 4.731 24 14h-2q-17.679-12.594-39-16 2.398.401 4-1" style="opacity:.875"/><path fill="#bd2899" d="M498.5 427.5q1.445 1.295 0 2-1.91-1.135 0-2" style="opacity:.008"/><path fill="#8619a4" d="M653.5 418.5a62.7 62.7 0 0 0 6 9 5.73 5.73 0 0 0 1 3q-3.937 1.449 0 3-2.457 1.807-1 4-.803 2.656-2.5 1a59 59 0 0 0-2.5 8 4.46 4.46 0 0 0 2 1.5q-2.201 1.647-2.5 4.5l-1-3q-1.678 1.578-1.5 3.5-1.423.926-2.5-.5a4.93 4.93 0 0 0-.5 3h-3q-.162 3.425-2.5 6l-2-2a67 67 0 0 0-2.5 6 4.46 4.46 0 0 0 2 1.5 15.3 15.3 0 0 0-1.5 4.5l-1-1a10.5 10.5 0 0 0-3.5 5q1.914 1.717 4 0 1.832 5.176-3 8a92 92 0 0 1-7-11q1.063-1.356 3-1 1.338-4.386 1-8.5a14.8 14.8 0 0 0-3-5.5 7.25 7.25 0 0 1 2-2.5 20.2 20.2 0 0 0 6-1.5q-1.773-2.95 2-4a3.65 3.65 0 0 0-1-1.5q2.701-.476 1-2 2.201-1.647 2.5-4.5 1.37 1.73 2.5-.5-1.526-1.574-.5-3.5 1.25 3.75 3.5.5-1.701-1.524 1-2-2.188-4.626 3-6-1.426-1.077-.5-2.5 5.738-3 .5-5.5a19.6 19.6 0 0 1 2-3.5" style="opacity:.998"/><path fill="#b6289c" d="M518.5 428.5q2 1 0 0" style="opacity:.004"/><path fill="#6325a6" d="M850.5 428.5q-.425 1.184-1.5 2-.792-1.974 1.5-2" style="opacity:.016"/><path fill="#ee3486" d="M170.5 429.5q2 1 0 0" style="opacity:.008"/><path fill="#df186b" d="M237.5 366.5h-3q-.497 52.756 1 105v40l-2-15q.495-64.859-1-129.5 2.472-2.516 5-.5" style="opacity:.569"/><path fill="#b9279b" d="M516.5 429.5q2 1 0 0" style="opacity:.004"/><path fill="#6126a6" d="M852.5 429.5q2 1 0 0" style="opacity:.008"/><path fill="#650d81" d="M659.5 425.5a180 180 0 0 0 10 15 237 237 0 0 0 13 23q1.205 1.385.5 3-3.245-2.462-4.5-6a126 126 0 0 0-8-13 216 216 0 0 0-10-17 5.73 5.73 0 0 1-1-3z" style="opacity:.965"/><path fill="#6428a9" d="M852.5 430.5q-1 1 0 0" style="opacity:.004"/><path fill="#8524a7" d="M665.5 432.5q2 1 0 0" style="opacity:.008"/><path fill="#8018a5" d="M660.5 430.5a216 216 0 0 1 10 17q-4.648-.13-1 1.5a9.5 9.5 0 0 0-1.5 2.5q-7.488-4.149-1.5 1.5-4 1 0 2-3.936.865-2 4a25.5 25.5 0 0 0-4 4.5q-1.824-.753-3.5-1-.015 4.637-3 9-6.118 2.665-8.5 7.5 1.392.582 2 2-1.45 2.743-.5 5.5-3.474 2.938-6 0l-1.5 3q-2.74-2.47-4-6 4.832-2.824 3-8-2.086 1.717-4 0a10.5 10.5 0 0 1 3.5-5l1 1a15.3 15.3 0 0 1 1.5-4.5 4.46 4.46 0 0 1-2-1.5 67 67 0 0 1 2.5-6l2 2q2.338-2.575 2.5-6h3a4.93 4.93 0 0 1 .5-3q1.077 1.426 2.5.5-.178-1.922 1.5-3.5l1 3q.299-2.853 2.5-4.5a4.46 4.46 0 0 1-2-1.5 59 59 0 0 1 2.5-8q1.697 1.656 2.5-1-1.457-2.193 1-4-3.937-1.551 0-3" style="opacity:.998"/><path fill="#7c25a8" d="M699.5 435.5q2 1 0 0" style="opacity:.004"/><path fill="#da166e" d="M292.5 420.5q18.267-.492 36 1-19.065-.516-32 1-2.128 1.426-5 1v65l-2-65a10.2 10.2 0 0 0 3-3" style="opacity:.632"/><path fill="#8125a6" d="M670.5 440.5q-1-2 0 0" style="opacity:.004"/><path fill="#8425a7" d="M670.5 440.5q2 1 0 0" style="opacity:.004"/><path fill="#55149b" d="M799.5 369.5v-1h3v216h-1v-183q.964-16.578-2-32" style="opacity:.983"/><path fill="#d51f8f" d="M412.5 396.5a36.9 36.9 0 0 1 11 9q-2.907 1.442-4.5-2a4.46 4.46 0 0 0-1.5 2q1.97 3.027-2 3.5-1.237 6.385 0 12-1.755 3.277-3.5 6.5l-1-2q-.476 2.701-2 1-1.026 1.926.5 3.5l-2 1q2 1 0 2a7.3 7.3 0 0 0 3 2l-2 1q2 1 0 2l-6 2 3 1q-2.704 1.893-4 5l2 1q-4.751 4.732-5.5 11.5-1.035-1.857-1.5 0a98 98 0 0 1-8-11q2.405.282 4-1.5-2.138-2.57 1-4l-3-2.5q2.696-4.002 5-6.5a55 55 0 0 0-2-4.5q-1.344 1.509-2 0a6.8 6.8 0 0 1 3-1.5q-2.184-.634-1.5-2.5a26.6 26.6 0 0 1 3.5 2 3.65 3.65 0 0 1-1 1.5q1.5 3 3 0-.656-3.674 0-7a4.46 4.46 0 0 1-2-1.5q.519-1.794 1.5 0 3.673-5.366 1.5-11l.5-1 7 2a4.93 4.93 0 0 0 .5-3q-1.763.329-3-1 1.782.29 4-1.5a6.55 6.55 0 0 0-3-3 4.46 4.46 0 0 1 2-1.5 8.2 8.2 0 0 0 4 2.5l-1 1q2.115 1.9 5 0-1.712-1.112 0-2.5a19.9 19.9 0 0 1-4-3.5q.343-.598 1-.5" style="opacity:.998"/><path fill="#be1b96" d="M451.5 447.5q7.82 17.039 10 36-1.09-4.89-5.5-8-2.736 1.873.5 3.5l-3 3q1.817 1.67 0 3.5a4.46 4.46 0 0 0 2 1.5 218 218 0 0 0-8 0q1.469 2.668-1 5l2 1q-1.245 4.203-2.5 8.5-1.806-1.457-1.5-3-1.296 2.545-4 3.5.883 2.81-2 5-.18 2.57.5 5.5-1.472 4.732-4 1a9.5 9.5 0 0 1-2.5 1.5q2.487 1.088 1.5 3.5a4.46 4.46 0 0 0-1.5-2 55 55 0 0 0-2 4.5q1.701 1.524-1 2 2.487 1.088 1.5 3.5-2.085-1.793-4.5 0a9.4 9.4 0 0 1 3 3q-2.15 1.095-3.5 3-1.476-3.442-2.5 1a6.8 6.8 0 0 1-3 1.5q4.726 4.261-1.5 5.5-3.227-3.918-2.5 0a28 28 0 0 0-1.5 5 3.65 3.65 0 0 0-1.5-1q-2.38 2.378-2.5 5-1.077-1.426-2.5-.5a7.3 7.3 0 0 0 3 2q-2.067 2.001-4 .5t-4 .5q1.84 2.381-1 4-2.545.577-5-.5a98 98 0 0 1 5.5-12 244 244 0 0 0 3.5-15q5.05.752 1 3.5 5.379-.627 9-7-2.567-1.7-1.5-4.5l1 2q.892-2.098-.5-4a31 31 0 0 0 2-2q6.484 1.24 3.5-5-5-1.5 0-3l1 2a6.98 6.98 0 0 1 2.5-3.5 3.65 3.65 0 0 1-1-1.5l4-1a32.4 32.4 0 0 0 1.5-6q2.23 1.861 2.5-1.5-1.892-3.46 1-6.5 3.874-2.61 7-4-2.125-.538-4-3.5a19 19 0 0 0 5-3l-1-1a11.3 11.3 0 0 0 1.5-3.5l1 1q1.23-5.45 5.5-9a928 928 0 0 1-1-9.5 12.14 12.14 0 0 1 3.5-4.5l1 1q-.157-3.793.5-7" style="opacity:.998"/><path fill="#ea3289" d="M200.5 449.5q-1-2 0 0" style="opacity:.004"/><path fill="#c31c96" d="M448.5 439.5a20.5 20.5 0 0 1 3 8q-.657 3.207-.5 7l-1-1a12.14 12.14 0 0 0-3.5 4.5q.531 5.283 1 9.5-4.27 3.55-5.5 9l-1-1a11.3 11.3 0 0 1-1.5 3.5l1 1a19 19 0 0 1-5 3q1.875 2.962 4 3.5-3.126 1.39-7 4-2.892 3.04-1 6.5-.27 3.361-2.5 1.5a32.4 32.4 0 0 1-1.5 6l-4 1a3.65 3.65 0 0 0 1 1.5 6.98 6.98 0 0 0-2.5 3.5l-1-2q-5 1.5 0 3 2.984 6.24-3.5 5-1.884.058-3-1.5 2-1.5 0-3 3.38-1.581 1-4.5 4.49-1.92 8-7a4.46 4.46 0 0 0-2-1.5 19 19 0 0 0 5-3q-1.423-.926-2.5.5l-.5-2q.901-6.246 0-13a26.6 26.6 0 0 1 3.5-2q.926-1.423-.5-2.5a4.46 4.46 0 0 0 2-1.5q-1.975.28-4-2 2.555.526 5-2a41 41 0 0 1 4-6.5q-1.611-1.108-2-3a66 66 0 0 0 8-7.5 3.65 3.65 0 0 0-1-1.5q2.174-1.676 5-2l-4-1q3.04-.942 7-2.5a26.6 26.6 0 0 0 2-3.5q-1.952-2.424 0-4.5" style="opacity:.997"/><path fill="#e38" d="M166.5 449.5q2 1 0 0" style="opacity:.004"/><path fill="#ee3087" d="M181.5 450.5q.595-1.538 2-.5a2.43 2.43 0 0 1-2 .5" style="opacity:.008"/><path fill="#eb3187" d="M200.5 450.5v-1q4 .5 0 1" style="opacity:.004"/><path fill="#e52188" d="M289.5 460.5v27q-3.244 1.171-1-2.5-3.992-2.064-8.5-5.5a9.5 9.5 0 0 1-1.5 2.5q6 2 0 4l2 1q-1.926 1.026-3.5-.5a15 15 0 0 0-3.5 3 22.6 22.6 0 0 0-5-3.5 4.46 4.46 0 0 0 2-1.5 10.8 10.8 0 0 1-2.5-3 13.9 13.9 0 0 1-4 3q-1.436-3.314-3.5.5a13.24 13.24 0 0 0 3 5 9.5 9.5 0 0 0-2.5 1.5 21.8 21.8 0 0 1-5-6q-2.436 4.674 3.5 5.5-4 1 0 2l-2 1q2.184.634 1.5 2.5-1-2-2 0-1-4-2 0-5.364-6.277-9 1l-1-2-4 4q-1.036-3.587-3 0-1.062-1.321-2.5-2v-20l3-1.5q-2.023-2.452.5-4.5-1.469 2.668 1 5l1-5q1.728 5.89 6 2l1 4q1.806-1.457 1.5-3a4.46 4.46 0 0 1 1.5 2 9.5 9.5 0 0 1 2.5-1.5q-.699-1.948 0-4.5a8.4 8.4 0 0 0 4-.5q-3.301-1.166 0-3.5 1.388 1.712 2.5 0a7.3 7.3 0 0 1 2 3 103 103 0 0 1 2-9 7.3 7.3 0 0 1 2 3q.677-3.644 2.5-.5-1.73 1.37.5 2.5 4.537-2.742.5-6-1.344 1.509-2 0a26.6 26.6 0 0 1 3.5-2l3 5 2-6q2.343.361 4.5-1.5l-2-2 6-1q-.699-1.948 0-4.5 6.842.714 2 6 2.054 3.396 3 7" style="opacity:.997"/><path fill="#bb289c" d="M486.5 449.5q2 1 0 0" style="opacity:.008"/><path fill="#af269e" d="M528.5 449.5q2 1 0 0" style="opacity:.004"/><path fill="#a723a0" d="M563.5 449.5q2 1 0 0" style="opacity:.004"/><path fill="#7e23ad" d="M675.5 449.5q2 1 0 0" style="opacity:.004"/><path fill="#6327a7" d="M832.5 449.5q2 1 0 0" style="opacity:.004"/><path fill="#6127ab" d="M848.5 449.5q2 1 0 0" style="opacity:.004"/><path fill="#6129ad" d="M861.5 449.5q2 1 0 0" style="opacity:.004"/><path fill="#6732aa" d="M884.5 450.5a12.9 12.9 0 0 1-5-.5q2.83-1.17 5 .5" style="opacity:.007"/><path fill="#e12c85" d="M200.5 450.5q1.063 1.356 3 1a9707 9707 0 0 1-1 197v-196h-55v196a9707 9707 0 0 1-1-197 744 744 0 0 0 54-1" style="opacity:.307"/><path fill="#5a229c" d="M884.5 450.5q1.258.512 1 2h-54z" style="opacity:.291"/><path fill="#ed3389" d="M204.5 453.5q2 1 0 0" style="opacity:.004"/><path fill="#6c36ae" d="M886.5 454.5q2 1 0 0" style="opacity:.004"/><path fill="#ab1a9b" d="M531.5 453.5q2.518-.322 3 2h-1q-7.503-.173-14 1 1.113 2.775 3 2-.85 4.28-5 5.5 2.567 1.7 1.5 4.5-2.082-1.58-4.5-.5 3.993 2.595 4 6.5-5.853 1.42-8 7a3.65 3.65 0 0 0 1 1.5q-4.956 1.353-1 4-.666 2.643-1.5-.5a6.8 6.8 0 0 1-1.5 3q-1.509-.656 0-2-1.526-3.792-3.5 0-1.276 4.062-1.5 7.5-2.911.456-5 2.5a317 317 0 0 1-.5-5q-3.03 5.585-1.5 10.5-5.535.636-.5 2.5 1 2 0 4-2.274-3.76-6.5-2.5 1.5 3.136-2 5l1 1q-3.741 2.919-2 7a61 61 0 0 1-2 5.5v-36a2.43 2.43 0 0 0 2-.5l-.5-5.5q2.574-1.579 3 2 1.036-5.336 5.5-5-5.405-3.219 2-3 .426-3.566 0-6.5 2.066-3.673 5.5-1.5 1.588-.195 2.5-1.5a13.9 13.9 0 0 0-3-4q6.528-.629 1-2l4-1-2-1a14.7 14.7 0 0 0 5-1.5 4.46 4.46 0 0 0-2-1.5l1-1a524 524 0 0 1 24-2.5" style="opacity:.998"/><path fill="#a60d71" d="M445.5 430.5q13.87 23.11 17 50a12.9 12.9 0 0 1-.5 5 2.43 2.43 0 0 1-.5-2q-2.18-18.961-10-36a20.5 20.5 0 0 0-3-8l-4-8q0-1 1-1" style="opacity:1"/><path fill="#9f188a" d="M535.5 648.5v-196q-27.116-.498-52 1v23l-2 35q-1.872-26.053 0-53.5-3.389-3.24 0-6 27.495-.75 55-.5a9707 9707 0 0 1-1 197" style="opacity:.999"/><path fill="#af1a99" d="M483.5 453.5h48a524 524 0 0 0-24 2.5l-1 1a4.46 4.46 0 0 1 2 1.5 14.7 14.7 0 0 1-5 1.5l2 1-4 1q5.528 1.371-1 2a13.9 13.9 0 0 1 3 4q-.912 1.305-2.5 1.5-3.434-2.173-5.5 1.5.426 2.934 0 6.5-7.405-.219-2 3-4.464-.336-5.5 5-.426-3.579-3-2l.5 5.5a2.43 2.43 0 0 1-2 .5v-36" style="opacity:.997"/><path fill="#9318a1" d="M637.5 391.5q1.462 3.442 4 6a2809 2809 0 0 1 8 15q-1.773 3.227-7 5-1.236-3.371-3-.5v6q-2.576 5.636-7 9.5-.925-.166-1.5-1l-2 4a38.8 38.8 0 0 0-8 0l-1 2a19 19 0 0 1-3-5q-2.634 1.382-.5 3.5-.901 2.407-3 4l3 5a9.5 9.5 0 0 0-1.5 2.5q-2.968-.393-5.5-2.5-.058 1.867 1 4a26.4 26.4 0 0 0-3 6.5 45.3 45.3 0 0 0 1 7.5q-2.54 4.428-5.5.5a14.7 14.7 0 0 1-1.5 5q-1.78-2.09-2 .5.416 2.838 3 4-2 1 0 2-1.423.926-2.5-.5.08 4.734-3.5 7.5a7.3 7.3 0 0 0 3 2q-2.412.703-5 2 1.268 2.337-2 3 1.633 3.394-2 5.5a11.1 11.1 0 0 0-3.5-2 17.7 17.7 0 0 0-5.5 4.5q1.423.926 2.5-.5 1.454 4.242-2 7l-1-1a15.3 15.3 0 0 1-4.5 1.5l2 1q-1.75.75-2.5 2.5l-1-2q1.194 4.678-3 8-3.945-3.717-4.5-9v-19q1.983-.255 3.5 1-.053-5.618 3-2-1.469-2.668 1-5 1.34 1.817 2.5 0-2.947-3.029-.5-6 1.064 2.21 3.5 2a4.93 4.93 0 0 1 .5-3q1.112 1.712 2.5 0 1.635-1.337 0-3 6.32-1.54 1.5-5-.32-4.22 3.5-2 2.075-3.864 2.5 1a11.3 11.3 0 0 1 1.5-3.5q-3.567-1.461 1-2-2-1.5 0-3l-2-1q2.52-.051 4.5-.5l1 3q4.523-3.024.5-6.5-2.995-1.14-5-1.5a26.6 26.6 0 0 1 3.5-2l3 3q1.512-.723 3.5-.5a7.3 7.3 0 0 0-3-2l4-2a7.25 7.25 0 0 1-2-2.5q4.107-2.064 6.5-6 .513-3.477-1.5-6.5l1.5-1.5q3.938 3.93 7.5-.5l-2-1q3.601-3.26 0-7 1.578-1.678 3.5-1.5 2.514.9 5 4 .987-2.412-1.5-3.5 3-1 4-4-1.17-1.61.5-3.5 1.256 2.26 3.5 1.5-1.635-3.824-5-2.5-3.451-1.154-.5-3l1-8q3.2 1.376 6.5.5a15.3 15.3 0 0 1 1.5 4.5l1-6 1 2q1-2 2 0 .75-1.75 2.5-2.5-4-1 0-2-2.348-2.259-1-4.5" style="opacity:.997"/><path fill="#c81572" d="M376.5 439.5h2l2 1q3.962 3.456 8 7a98 98 0 0 0 8 11q3.005 7.007 6 14-1 0-1 1-7.919-20.412-25-34" style="opacity:1"/><path fill="#c12b9b" d="M459.5 459.5q2 1 0 0" style="opacity:.004"/><path fill="#9423a5" d="M617.5 461.5q2 1 0 0" style="opacity:.012"/><path fill="#210154" d="M803.5 367.5q.836 139.573 0 280-1 0-1-1v-278q0-1 1-1" style="opacity:.982"/><path fill="#a421a0" d="M563.5 464.5q2 1 0 0" style="opacity:.004"/><path fill="#8d17a1" d="M632.5 432.5q-.016 2.276-2 3.5l1 1a12.4 12.4 0 0 0-5 4.5q3.166 2.986 4 6a19.9 19.9 0 0 1-4 3.5l5 1q-2.805 2.346-6 0-3.458-4.323-2 1.5-1.527 4.443-2 8a514 514 0 0 0-3-4q-1.444.705 0 2-1.257.512-1 2h-1a8.4 8.4 0 0 0-.5-4l-1 1a242 242 0 0 0-.5 22 10.1 10.1 0 0 0-4 1.5l2 1q-2.023 1.158-2.5 3.5a4.46 4.46 0 0 0-1.5-2q-.842 4.093-5 4.5 3.087 2.235 4 6-2.032 1.94-4 .5a32 32 0 0 1-4 3.5q3.736.939 0 2.5a3.65 3.65 0 0 0 1 1.5 6.98 6.98 0 0 0-3.5 2.5q-2.097-.826-4-1-2.23 1.13-.5 2.5l-2 2q1.392.582 2 2a59 59 0 0 0-1.5 7.5q-5.609-5.738-1.5 1.5-3.198 1.377-2 4-2.244.76-3.5-1.5-1.926 1.608-1 4-1.963-3.586-3 0-1.37-1.73-2.5.5l1 1-4 2 2 1q-.714 2.736-4.5 4.5-.696 8.512-2 1l-1 3-.5-2q1.385-2.444 1-4.5a2.43 2.43 0 0 0-2-.5v-28q.555 5.283 4.5 9 4.194-3.322 3-8l1 2q.75-1.75 2.5-2.5l-2-1a15.3 15.3 0 0 0 4.5-1.5l1 1q3.454-2.758 2-7-1.077 1.426-2.5.5a17.7 17.7 0 0 1 5.5-4.5 11.1 11.1 0 0 1 3.5 2q3.633-2.106 2-5.5 3.268-.663 2-3 2.588-1.297 5-2a7.3 7.3 0 0 1-3-2q3.58-2.766 3.5-7.5 1.077 1.426 2.5.5-2-1 0-2-2.584-1.162-3-4 .22-2.59 2-.5a14.7 14.7 0 0 0 1.5-5q2.96 3.928 5.5-.5a45.3 45.3 0 0 1-1-7.5 26.4 26.4 0 0 1 3-6.5q-1.058-2.133-1-4 2.532 2.107 5.5 2.5a9.5 9.5 0 0 1 1.5-2.5l-3-5q2.099-1.593 3-4-2.134-2.118.5-3.5a19 19 0 0 0 3 5l1-2a38.8 38.8 0 0 1 8 0l2-4q.575.834 1.5 1" style="opacity:.998"/><path fill="#6e23ab" d="M747.5 465.5q1.61 1.126.5 3a4.93 4.93 0 0 1-.5-3" style="opacity:.005"/><path fill="#a6199b" d="M533.5 455.5q.596 6.12-3 11 3.736 1.561 0 2.5a18 18 0 0 1 2 3.5q-1.793 2.2 0 4.5-.389 1.892-2 3l1 1q-2.457-.363-4.5-2.5l-1 1q-8.25-4.197-1.5 2.5-1.701 1.524 1 2a221 221 0 0 1-8 6q3.586 1.036 0 3 5.658 2.083 0 3 1.89 2.72 0 5.5a10.3 10.3 0 0 1-1.5-4q-1.25 2.25-3.5 3.5 1.17 1.61-.5 3.5l-1-2a39 39 0 0 1-4.5 4.5l1 1q-5.46 1.701 1 3a15.4 15.4 0 0 1-6 3q2 2.5 0 5 3.143.834.5 1.5-1.418-.608-2-2a40.4 40.4 0 0 0-5.5 8.5q2.218 4.96-1.5 9.5-.634-2.184-2.5-1.5a23.6 23.6 0 0 1-1 3.5 12.4 12.4 0 0 1-2.5-4l-2.5 2.5q5.51 1.338.5 4.5l-1-1q-.348 1.855-1.5 3v-18a61 61 0 0 0 2-5.5q-1.741-4.081 2-7l-1-1q3.5-1.864 2-5 4.226-1.26 6.5 2.5 1-2 0-4-5.035-1.864.5-2.5-1.53-4.915 1.5-10.5.269 2.886.5 5 2.089-2.044 5-2.5.224-3.438 1.5-7.5 1.974-3.792 3.5 0-1.509 1.344 0 2a6.8 6.8 0 0 0 1.5-3q.834 3.143 1.5.5-3.956-2.647 1-4a3.65 3.65 0 0 1-1-1.5q2.147-5.58 8-7-.007-3.905-4-6.5 2.418-1.08 4.5.5 1.067-2.8-1.5-4.5 4.15-1.22 5-5.5-1.887.775-3-2 6.497-1.173 14-1" style="opacity:.998"/><path fill="#7317a6" d="M678.5 460.5q1.255 3.538 4.5 6 .705-1.615-.5-3h3q-1.205 1.385-.5 3 2.438-2.183 3.5-5-.405 7.593-1.5 14-5.24.89-8.5 5-.465 2.552 1.5 5 1.006-1.129 2.5-1a4.93 4.93 0 0 1-.5 3l-1-1a114 114 0 0 0-6.5 4.5q3.318 3.261-1.5 5.5l-1-2q.07 2.719-.5 5-1.824.894-4 .5 3.168 1.359 2.5 4.5l-1-2a13.9 13.9 0 0 0-4 3l-1-1q.41 3.677-1.5 7.5l1 1q-2.558 3.716-6 4a27.1 27.1 0 0 0 6 5q-2.101.615-4 1.5a58.5 58.5 0 0 0-5-9q-.149-4.722 1-9a16.2 16.2 0 0 0-2-5q.519-1.794 1.5 0a20.6 20.6 0 0 1 2-6l1 2q.886-7.316 4-2l1.5-1.5-4-3q5.328-4.19 4.5-10.5a7.25 7.25 0 0 0 2.5 2q2.089-2.044 5-2.5-.03-2.572-2-5.5a4.46 4.46 0 0 1 2-1.5q-3.585-.454-6-2.5a20.2 20.2 0 0 1 6-1.5l-1-1a18 18 0 0 0 2-3.5z" style="opacity:.999"/><path fill="#7133b4" d="M885.5 471.5q1.184.425 2 1.5-2 1 0 2a2.43 2.43 0 0 1-2 .5z" style="opacity:.008"/><path fill="#7917a5" d="M670.5 447.5q4.355 6.195 8 13l-6 3a18 18 0 0 1-2 3.5l1 1a20.2 20.2 0 0 0-6 1.5q2.415 2.046 6 2.5a4.46 4.46 0 0 0-2 1.5q1.97 2.928 2 5.5-2.911.456-5 2.5a7.25 7.25 0 0 1-2.5-2q.828 6.31-4.5 10.5l4 3-1.5 1.5q-3.114-5.316-4 2l-1-2a20.6 20.6 0 0 0-2 6q-.981-1.794-1.5 0a16.2 16.2 0 0 1 2 5q-1.149 4.278-1 9a138 138 0 0 0-9-13l-6-12 1.5-3q2.526 2.938 6 0-.95-2.757.5-5.5-.608-1.418-2-2 2.382-4.835 8.5-7.5 2.985-4.363 3-9 1.676.247 3.5 1a25.5 25.5 0 0 1 4-4.5q-1.936-3.135 2-4-4-1 0-2-5.988-5.649 1.5-1.5a9.5 9.5 0 0 1 1.5-2.5q-3.648-1.63 1-1.5" style="opacity:.998"/><path fill="#8d23a5" d="M625.5 474.5q2 1 0 0" style="opacity:.008"/><path fill="#6a21a9" d="M739.5 474.5q2 1 0 0" style="opacity:.008"/><path fill="#2b0960" d="M831.5 453.5v-1h54q.83 10.057 0 19v8h-1v-26h-53" style="opacity:.979"/><path fill="#b71a96" d="M461.5 483.5a2.43 2.43 0 0 0 .5 2 12.9 12.9 0 0 0 .5-5q1.442 2.648 1 6-1.452 3.161-1 7-2.42 2.654-6 3.5l2 4a21.3 21.3 0 0 0-5 4q3.943 4.183-2 6a6.8 6.8 0 0 1 3 1.5q-.656 1.509-2 0a10.3 10.3 0 0 0-1.5 4q-1.036-3.586-3 0 1.09 4.418-2.5 8l1 4q-2.15 1.095-3.5 3-1.946-1.926-3.5.5-.368 2.866 0 6-1.608 1.926-4 1-2.841 1.651-2 4-1.457 1.806-3 1.5a26 26 0 0 0 0 5.5q-1.764 2.871-3-.5l-3 3 2 1a10.3 10.3 0 0 1-4 1.5l2 1q-3.546 1.518-4 4l2 1q-6.057.902-8.5 6.5l-1-2a6.98 6.98 0 0 1-3.5 2.5q1.392.582 2 2-4.843 5.393-9 9.5-3.015-1.273-5 2a23.6 23.6 0 0 1-5-.5q1.701 1.524-1 2l1 1a62 62 0 0 0-4.5 7.5q-1-4-2 0a4.93 4.93 0 0 1-.5-3q-2.405-.282-4 1.5l2 1q-1.926 1.026-3.5-.5-2.052 2.29-1.5 4.5l2 1q-2.52.051-4.5.5-1.87-3.571-1 1 2.343-.361 4.5 1.5-2.713 3.613-7 3-.919-1.955-1-3.5-3.924 3.454-9 4a4.93 4.93 0 0 1-.5 3 39 39 0 0 0-2.5-5q-3.94-1.902-6.5 0a9.5 9.5 0 0 1-2.5 1.5q2 2.76-.5 1.5a14.5 14.5 0 0 1-4 5q-3.144-1.823.5-2.5l-1.5-.5a24.3 24.3 0 0 0-3.5 3.5q-1.405 1.038-2-.5 5.151-3.225 0-5.5 3.575-.097 2-2.5a29 29 0 0 0 1.5-4q1.524 1.701 2-1l1 1q5.23-4.949 11-1 3.822-3.651 6.5-6 1.561 3.736 2.5 0 .294 2.679 2.5 4a20.9 20.9 0 0 1 6.5-3q3.202-3.118-.5-5.5 1.423-.926 2.5.5l2-2q3.07-.198 6.5.5-3.845-3.79 2-5-2-1.5 0-3l5-1q-1.926-1.946.5-3.5 1.71 5.159 5.5.5-1.423-.926-2.5.5-3.05-1.865-2.5-4.5 4.12-.168 7.5.5l1.5-1.5q-2.679-.294-4-2.5a28 28 0 0 0 1.5-5q1.036 3.586 3 0l1 2a73.6 73.6 0 0 0 3.5-10q1.933 1.501 4-.5a7.3 7.3 0 0 1-3-2q1.423-.926 2.5.5.12-2.622 2.5-5a3.65 3.65 0 0 1 1.5 1 28 28 0 0 1 1.5-5q-.727-3.918 2.5 0 6.226-1.239 1.5-5.5a6.8 6.8 0 0 0 3-1.5q1.024-4.442 2.5-1 1.35-1.905 3.5-3a9.4 9.4 0 0 0-3-3q2.415-1.793 4.5 0 .987-2.412-1.5-3.5 2.701-.476 1-2a55 55 0 0 1 2-4.5 4.46 4.46 0 0 1 1.5 2q.987-2.412-1.5-3.5a9.5 9.5 0 0 0 2.5-1.5q2.528 3.732 4-1-.68-2.93-.5-5.5 2.883-2.19 2-5 2.704-.955 4-3.5-.306 1.543 1.5 3 1.255-4.297 2.5-8.5l-2-1q2.469-2.332 1-5a218 218 0 0 1 8 0 4.46 4.46 0 0 1-2-1.5q1.817-1.83 0-3.5l3-3q-3.236-1.627-.5-3.5 4.41 3.11 5.5 8" style="opacity:.998"/><path fill="#a221a1" d="M563.5 475.5q2 1 0 0" style="opacity:.008"/><path fill="#6922a9" d="M747.5 475.5q2 1 0 0" style="opacity:.004"/><path fill="#8c1fa6" d="M626.5 476.5q2 1 0 0" style="opacity:.004"/><path fill="#6d17a6" d="M701.5 462.5q2.544.278 4 2.5-1.437 1.72 1 3 6 1 0 2 1.794.981 0 1.5-1.824-.753-3.5-1-.938 3.674.5 8h-5q-1.074 4.212-3 6-.141 3.618 3 5.5l-4 1q1.855.348 3 1.5-2.97 2.022-3.5 6-3.26-4.165-1.5.5-2.361.53-5 2l2 1q-4.686 2.312-1 5.5-2.26 1.858-3.5-1-2.323 2.626-2.5 5-5.133-4.185-2 .5-.722 1.512-.5 3.5l-1-1a30.3 30.3 0 0 1-5 8q-.634-2.184-2.5-1.5a611 611 0 0 0 0 21.5 5030 5030 0 0 0-12-19 28 28 0 0 1 4-1.5 27.1 27.1 0 0 1-6-5q3.442-.284 6-4l-1-1q1.91-3.823 1.5-7.5l1 1a13.9 13.9 0 0 1 4-3l1 2q.668-3.141-2.5-4.5 2.176.394 4-.5.57-2.281.5-5l1 2q4.818-2.239 1.5-5.5a114 114 0 0 1 6.5-4.5l1 1a4.93 4.93 0 0 0 .5-3q1.987-2.179 2.5 1 .426-3.579 3-2l-1-4q1 2 2 0 1.258-4.761 5-8 1.077 1.426 2.5.5-.914-3.699 1-7.5 1.16-1.817 2.5 0 1.075-.816 1.5-2" style="opacity:.998"/><path fill="#6a21a9" d="M738.5 476.5q2 1 0 0" style="opacity:.008"/><path fill="#a422a2" d="M563.5 477.5q2 1 0 0" style="opacity:.004"/><path fill="#8820a3" d="M629.5 478.5q-1 1 0 0" style="opacity:.004"/><path fill="#7134b5" d="M885.5 479.5a19.6 19.6 0 0 1 2 3.5q-1.64 12.247 0 25-.816 1.075-2 1.5z" style="opacity:.012"/><path fill="#a120a1" d="M563.5 483.5q2 1 0 0" style="opacity:.004"/><path fill="#eb368e" d="M144.5 484.5q2 1 0 0" style="opacity:.004"/><path fill="#e42187" d="M201.5 488.5v35q-1.152-1.145-1.5-3-1.572 4.89-4 8l-1-4a26.7 26.7 0 0 1-1.5 6.5l1 1a240 240 0 0 1-6-.5 4.93 4.93 0 0 0-.5-3 32 32 0 0 0-4.5 5 6.8 6.8 0 0 0 3 1.5q-1.89 1.67-3.5.5-2.426 1.554-.5 3.5a16.2 16.2 0 0 1-3.5 1.5q-6.138-2.985-9 3l-1-2q-1.026 1.926.5 3.5-2.452.81-4-1.5a7.25 7.25 0 0 0-2.5 2q-4.316-4.481-9-1-.75-1.75-2.5-2.5l1-1a287 287 0 0 1-2.5-22.5 539 539 0 0 1-1.5 33v-53q1.401-1.602 1-4 3.315 1.433 1 4.5a34 34 0 0 1 1.5 7.5l1-4a19 19 0 0 0 2.5 7q.08-1.78 1-4-.393 2.448 3 3.5 2.8 1.067 4.5-1.5a9.5 9.5 0 0 0 2.5 1.5q-1.426 1.077-.5 2.5a11.3 11.3 0 0 1 3.5-1.5l-2-1q2.316-.435 4-2-2.137-2.043-2.5-4.5 2.343-.361 4.5 1.5-1.846 1.774 0 3.5.447-3.558 4-6.5l-2-1q1.75-.75 2.5-2.5a7.3 7.3 0 0 0 2 3q3.5-4 7 0 4.326-3.4 4.5-8 2.109 1.752 3.5-1 1.5 2 3 0 .76-2.244-1.5-3.5 2.952-4.813 5 .5" style="opacity:.998"/><path fill="#e2208a" d="M289.5 487.5v26a19.6 19.6 0 0 1-2-3.5q1.342-4.643 0-9.5a20.1 20.1 0 0 0-6 1.5q1.866 4.482-3 6.5-.963-4.946-3.5-1-2.23-1.13-.5-2.5-2.595-2.779-3.5.5a6.55 6.55 0 0 1-3-3l-4.5 5q-1.817 1.83 0 3.5a6.98 6.98 0 0 0-3.5 2.5l-2.5-3q-.765 3.978-4 6-1.414-2.955 2-4.5-4.486-1.27-4 3.5a4.93 4.93 0 0 0-3 .5q-3.141 1.293-3 3.5a32 32 0 0 1-5-4.5l3-1q-2.744-.41-4.5-2.5-4.101 1.293-.5 2.5a4.93 4.93 0 0 1-3 .5v-17q1.438.679 2.5 2 1.964-3.587 3 0l4-4 1 2q3.636-7.277 9-1 1-4 2 0 1-2 2 0 .684-1.866-1.5-2.5l2-1q-4-1 0-2-5.936-.826-3.5-5.5a21.8 21.8 0 0 0 5 6 9.5 9.5 0 0 1 2.5-1.5 13.24 13.24 0 0 1-3-5q2.064-3.814 3.5-.5a13.9 13.9 0 0 0 4-3 10.8 10.8 0 0 0 2.5 3 4.46 4.46 0 0 1-2 1.5 22.6 22.6 0 0 1 5 3.5 15 15 0 0 1 3.5-3q1.574 1.526 3.5.5l-2-1q6-2 0-4a9.5 9.5 0 0 0 1.5-2.5q4.508 3.436 8.5 5.5-2.244 3.671 1 2.5" style="opacity:.998"/><path fill="#690c7e" d="M621.5 461.5a97 97 0 0 1 7 11 92 92 0 0 0 7 11q1.26 3.53 4 6l6 12v2a22.8 22.8 0 0 0-4-5 36 36 0 0 0-4-7 128 128 0 0 0-8-13 268 268 0 0 0-11-19q-1.444-1.295 0-2a514 514 0 0 1 3 4" style="opacity:.933"/><path fill="#6616a6" d="M740.5 467.5a88.5 88.5 0 0 1-8 14q-1.919-2.202-5-2-1.134 3.17-.5 6-3.438 3.927-8.5 5.5 1.58 2.082.5 4.5-1.24-2.858-3.5-1l2 1-1.5 3q-1.524-1.701-2 1-4.665-1.76-.5 1.5-.678 2.418-4 3 1.637 3.096.5 6.5-2.23-1.13-.5-2.5-1-1-2 0-.753 4.289-4 8.5-3.55-.55-7 1.5a23 23 0 0 0 5 2l-6 4q1.043 2.232-1 4.5l-1-2q-2.972.908-1 3a10.8 10.8 0 0 0-2.5 3q-1.436-3.314-3.5.5 1.932 3.699 0 7.5a55 55 0 0 0-6.5 6 4.93 4.93 0 0 1-.5-3q-1.983.255-3.5-1a81 81 0 0 1-2.5 3q-1.352-1.185-2-3a611 611 0 0 1 0-21.5q1.866-.684 2.5 1.5a30.3 30.3 0 0 0 5-8l1 1q-.222-1.988.5-3.5-3.133-4.685 2-.5.177-2.374 2.5-5 1.24 2.858 3.5 1-3.686-3.188 1-5.5l-2-1q2.639-1.47 5-2-1.76-4.665 1.5-.5.53-3.978 3.5-6 1.083.626 1.5 2 3.733-2.652 2.5-6.5 5.518-2.9 0-5l4-1-2-1q2.452-.81 4 1.5a4.46 4.46 0 0 0 1.5-2q.779 1.524 2.5 2 3.312-1.158-1-2.5a4.93 4.93 0 0 1 3-.5q-.303-3.734 1.5-7 2.785 1 4.5-2a70 70 0 0 1 3.5-5q1.582 4.113 3 7a7.3 7.3 0 0 0 2-3 4.46 4.46 0 0 0 1.5 2q.92-2.22 1-4a10.3 10.3 0 0 1 1.5 4q2.626-2.985 3-7 2.646-3.242 5.5-.5-1.937 1.938 0 3.5" style="opacity:.998"/><path fill="#3d0f8a" d="M832.5 453.5h52v194h-52v-194" style="opacity:.998"/><path fill="#5519ac" d="M883.5 522.5a1754 1754 0 0 1-2-41 60 60 0 0 0-.5 6q-.974-5.156-1.5-.5-.091 2.566 2 4a14.8 14.8 0 0 0-3 4.5q-1.372-3.72-4.5-2a6.98 6.98 0 0 1-2.5 3.5 14.7 14.7 0 0 1 5 1.5q-1.5 4-3 0-1.388 1.712-2.5 0 .028 2.41.5 5-5.923.29 0 1.5-1.89 1.67-3.5.5-4.32 7.84-5.5 0l3-2.5a14.8 14.8 0 0 1-3-4.5q-1.848.967-4 .5 1.936 3.135-2 4l1 3q-1.764 2.871-3-.5a47 47 0 0 0-5.5 4 9.5 9.5 0 0 0-1.5-2.5 153 153 0 0 0-7-3q.21 2.395 0 4.5 2.281.57 5 .5a3.65 3.65 0 0 0-1 1.5l2 1a22.2 22.2 0 0 1-6 2.5q3.807 1.757 1.5 4.5-.634-2.184-2.5-1.5-.339 3.226 2 6.5a47 47 0 0 1-4 5.5q2.013 3.023 1.5 6.5-2-2-4 0-.261 7.776-1.5 15v-96h50z" style="opacity:.998"/><path fill="#5a18aa" d="M801.5 463.5v23a2.43 2.43 0 0 0-2 .5q-.121 2.2 1 5-3.126 2.86 0 5a42.4 42.4 0 0 0-1.5 8.5q-2.426-1.554-.5-3.5a9.5 9.5 0 0 1-2.5-1.5q-.908 2.972-3 1-.81 2.452 1.5 4-5.961.89-6.5 7-.959-4.092-3.5-1.5l2 1q-1.926 1.026-3.5-.5-1.064 2.21-3.5 2 .329 1.762-1 3-.616-1.143-.5-3a12.8 12.8 0 0 0-3 6q-1.207-3.601-2.5.5l1 1h-6q3.601 1.207-.5 2.5l-1 4-1-2q-.244 3.264-2.5 5.5a38 38 0 0 0-6.5 2.5q-2.763-3.07-3.5-7v-56q-.503-7.167 1-12-.495 10.548 1 21l3-4a10.8 10.8 0 0 1 3 2.5q3.032.21 5.5.5.978-3.335 4.5-3.5-1.254-1.865 1-3.5a57 57 0 0 1 7.5 5q1.963-3.587 3 0 1-2 2 0 1.026-1.926-.5-3.5 3.735-.743 4.5-4.5a10.3 10.3 0 0 0 1.5 4q.996-3.354 3.5-6l1 2a347 347 0 0 1 5-5q-.722-4.905 1-11 .265 5.784 1.5 11" style="opacity:.998"/><path fill="#470b78" d="m748.5 458.5-23 38a545 545 0 0 0-23 38 821 821 0 0 0-17.5 27q-3.477 3.413-4.5-2h1q.925.166 1.5 1a2454 2454 0 0 0 49.5-79 88.5 88.5 0 0 0 8-14 61 61 0 0 0 6-9q1.135-1.91 2 0" style="opacity:.894"/><path fill="#8520a4" d="M636.5 491.5q-1-2 0 0" style="opacity:.008"/><path fill="#9e20a0" d="M563.5 491.5q2 1 0 0" style="opacity:.004"/><path fill="#8420a3" d="M636.5 491.5h1q-.278 1.005-1 0" style="opacity:.004"/><path fill="#e32b87" d="M231.5 492.5q2 1 0 0" style="opacity:.004"/><path fill="#c51c95" d="M441.5 427.5a309 309 0 0 0 3 4l4 8q-1.952 2.076 0 4.5a26.6 26.6 0 0 1-2 3.5q-3.96 1.558-7 2.5l4 1q-2.826.324-5 2 .686.621 1 1.5a66 66 0 0 1-8 7.5q.389 1.892 2 3a41 41 0 0 0-4 6.5q-2.445 2.526-5 2 2.025 2.28 4 2a4.46 4.46 0 0 1-2 1.5q1.426 1.077.5 2.5a26.6 26.6 0 0 0-3.5 2q.901 6.754 0 13l.5 2q1.077-1.426 2.5-.5a19 19 0 0 1-5 3 4.46 4.46 0 0 1 2 1.5q-3.51 5.08-8 7 2.38 2.919-1 4.5 2 1.5 0 3 1.116 1.558 3 1.5a31 31 0 0 1-2 2q1.392 1.902.5 4l-1-2q-1.067 2.8 1.5 4.5-3.621 6.373-9 7 4.05-2.748-1-3.5a20.7 20.7 0 0 1 1-5 236 236 0 0 0 1-28 31 31 0 0 1 2 2q2.224-3.669 3.5 1 2.148-3.753.5-7.5 4-1 0-2 2.075-3.184 5-3l-1-1a40 40 0 0 1 4-4.5 854 854 0 0 1 2-15l3-1.5a10.3 10.3 0 0 1-4-1.5q2.087.587 3-2.5-1.719-3.835 3-4l-1-1q3.093-3.102 3.5-7.5 1-2 2 0l1-3q3.436 1.163 5.5-2.5l-2-2a67 67 0 0 0 2-5.5q-2.367-4.125 1-7" style="opacity:.998"/><path fill="#6215a4" d="M732.5 481.5a2454 2454 0 0 1-49.5 79q-.575-.834-1.5-1-3.982-6.959-8-14a81 81 0 0 0 2.5-3q1.517 1.255 3.5 1a4.93 4.93 0 0 0 .5 3 55 55 0 0 1 6.5-6q1.932-3.801 0-7.5 2.064-3.814 3.5-.5a10.8 10.8 0 0 1 2.5-3q-1.972-2.092 1-3l1 2q2.043-2.268 1-4.5l6-4a23 23 0 0 1-5-2q3.45-2.05 7-1.5 3.247-4.211 4-8.5 1-1 2 0-1.73 1.37.5 2.5 1.137-3.404-.5-6.5 3.322-.582 4-3-4.165-3.26.5-1.5.476-2.701 2-1l1.5-3-2-1q2.26-1.858 3.5 1 1.08-2.418-.5-4.5 5.062-1.573 8.5-5.5-.634-2.83.5-6 3.081-.202 5 2" style="opacity:.998"/><path fill="#b91071" d="M402.5 472.5a648 648 0 0 0 3 8 571 571 0 0 1 3 15 236 236 0 0 1-1 28q-1.426-2.128-1-5 .76-22.902-5-45 0-1 1-1" style="opacity:1"/><path fill="#8521a6" d="M637.5 494.5q2 1 0 0" style="opacity:.004"/><path fill="#b21997" d="M462.5 493.5a275 275 0 0 1-2 41q-2.001 2.488-5 4a103 103 0 0 1-2.5 8q-4.008-1.888-6.5 2a7.25 7.25 0 0 0 2 2.5q-1.062 4.152-4.5 2.5-1.149 3.65-4.5 5.5 3.672 3.45-2 4 2.316.434 4 2-3.254.643-6-1.5-2.656.803-1 2.5-2.883 2.19-2 5-1.89 1.67-3.5.5-.684 1.866 1.5 2.5-2.362.504-4 2.5a6.8 6.8 0 0 0 3 1.5l-4 1 2 1q-1.926 1.026-3.5-.5a11.53 11.53 0 0 1-4.5 3.5l2 1-7 3 1 1q-2.639 1.512-3.5 4.5l-3-3-6 6q-1.077-1.426-2.5-.5-1.619 3.064-5 4 2.701.476 1 2-2.922-1.102-5.5-1.5-.133 2.42 2.5 3.5-1.758.53-3.5-.5-3.674.512-6.5 4.5a12.9 12.9 0 0 1-5 .5v3a32.8 32.8 0 0 0-8-1.5 7.3 7.3 0 0 1-3 2l1 1q-2.159 1.486-3 4 11.505-1.304.5 2.5-2.549-1.359-5.5-1 .13-4.648-1.5-1l-1-1q-.684 1.866 1.5 2.5a25.5 25.5 0 0 0-4 4.5q.795 2.616 0 4.5a4.46 4.46 0 0 1-2 1.5q-4.275-2.142-3 2l-3 3q-1.782-.822-3.5-1l-5 4a7.3 7.3 0 0 0-2-3q-8.647 1.004 0-3 2.982.037 6 0 .87-4.571-1-1-2.51-.848-5.5-.5-.55-2.635 2.5-4.5l1 1q1.993-1.491 4-3 1.517.588 1.5 2 2.233-.05 4-1.5-2.09-1.757-2.5-4.5-1.791 3.038-4.5 1-1.794.519 0 1.5-6.454 1.854-3-2.5a3.65 3.65 0 0 0-1-1.5q7.42.05 7.5-6.5 1.676.247 3.5 1 2.28-2.025 2-4 2.085 2.555 4.5 2 1.448-5.327 3.5-9a39 39 0 0 1 2.5 5 4.93 4.93 0 0 0 .5-3q5.076-.546 9-4 .081 1.545 1 3.5 4.287.613 7-3-2.157-1.861-4.5-1.5-.87-4.571 1-1 1.98-.449 4.5-.5l-2-1q-.552-2.21 1.5-4.5 1.574 1.526 3.5.5l-2-1q1.595-1.782 4-1.5a4.93 4.93 0 0 0 .5 3q1-4 2 0a62 62 0 0 1 4.5-7.5l-1-1q2.701-.476 1-2 2.591.529 5 .5 1.985-3.273 5-2 4.157-4.107 9-9.5-.608-1.418-2-2a6.98 6.98 0 0 0 3.5-2.5l1 2q2.443-5.598 8.5-6.5l-2-1q.454-2.482 4-4l-2-1a10.3 10.3 0 0 0 4-1.5l-2-1 3-3q1.236 3.371 3 .5a26 26 0 0 1 0-5.5q1.543.306 3-1.5-.841-2.349 2-4 2.392.926 4-1-.368-3.134 0-6 1.554-2.426 3.5-.5 1.35-1.905 3.5-3l-1-4q3.59-3.582 2.5-8 1.964-3.586 3 0a10.3 10.3 0 0 1 1.5-4q1.344 1.509 2 0a6.8 6.8 0 0 0-3-1.5q5.943-1.817 2-6a21.3 21.3 0 0 1 5-4l-2-4q3.58-.846 6-3.5" style="opacity:.997"/><path fill="#8616a0" d="M614.5 480.5v25q-3.447 1.222-7.5 3 .2 5.601 0 11-1.67 1.817-3.5 0-5.269 6.393-5 15-2.405-.282-4 1.5 2.184.634 1.5 2.5-1.72-1.437-3 1l-1-2q1.842 4.813-2.5 7.5l2 1q-3.637.439-5.5 3.5a4.46 4.46 0 0 0-1.5-2 10.8 10.8 0 0 1-3 2.5q1.58 2.082.5 4.5-2.545 1.296-3.5 4l2 1a25 25 0 0 0-7 7.5 11.3 11.3 0 0 0-3.5 1.5 51 51 0 0 1-2.5-4v-32a2.43 2.43 0 0 1 2 .5q.385 2.056-1 4.5l.5 2 1-3q1.304 7.512 2-1 3.786-1.764 4.5-4.5l-2-1 4-2-1-1q1.13-2.23 2.5-.5 1.037-3.586 3 0-.926-2.392 1-4 1.256 2.26 3.5 1.5-1.198-2.623 2-4-4.109-7.238 1.5-1.5a59 59 0 0 1 1.5-7.5q-.608-1.418-2-2l2-2q-1.73-1.37.5-2.5 1.903.174 4 1a6.98 6.98 0 0 1 3.5-2.5 3.65 3.65 0 0 1-1-1.5q3.736-1.561 0-2.5a32 32 0 0 0 4-3.5q1.968 1.44 4-.5-.913-3.765-4-6 4.158-.407 5-4.5a4.46 4.46 0 0 1 1.5 2q.477-2.342 2.5-3.5l-2-1a10.1 10.1 0 0 1 4-1.5" style="opacity:.998"/><path fill="#6a1fab" d="M725.5 496.5q2 1 0 0" style="opacity:.004"/><path fill="#6821a9" d="M747.5 496.5q2 1 0 0" style="opacity:.004"/><path fill="#841fa6" d="M640.5 498.5q-1-2 0 0" style="opacity:.012"/><path fill="#8420a5" d="M640.5 498.5h1q-.278 1.005-1 0" style="opacity:.008"/><path fill="#d10c63" d="m289.5 423.5 2 65v1l-2 30v-96" style="opacity:.996"/><path fill="#821fa6" d="M641.5 500.5q2 1 0 0" style="opacity:.012"/><path fill="#6921a9" d="M724.5 500.5q2 1 0 0" style="opacity:.004"/><path fill="#5416a8" d="M801.5 486.5v49q-1.232-4.712-1.5-10a42.4 42.4 0 0 1-1.5 8.5q3.574 3.984.5 8.5-3.256-5.097-7.5-2 1.72 3.128-2 4.5-1 1-2 0 1.816-1.34 0-2.5a4.46 4.46 0 0 0-1.5 2l-1-1a66 66 0 0 0-2 10 4.46 4.46 0 0 0-1.5-2q.442 1.989-1.5 4a3.65 3.65 0 0 0-1.5-1 20 20 0 0 1-4.5 3q-2.118-2.134-3.5.5 4.585.826 1 5-4.347-.832-4 4.5-3.618-.384-5 3-1.39-3.669-5-2.5 2.099 1.593 3 4-1.655.22-3.5 2.5-4.454 8.893-3.5 19-1.511-28.464-1-67 .737 3.93 3.5 7a38 38 0 0 1 6.5-2.5q2.256-2.236 2.5-5.5l1 2 1-4q4.101-1.293.5-2.5h6l-1-1q1.293-4.101 2.5-.5a12.8 12.8 0 0 1 3-6q-.116 1.857.5 3 1.329-1.238 1-3 2.436.21 3.5-2 1.574 1.526 3.5.5l-2-1q2.541-2.592 3.5 1.5.539-6.11 6.5-7-2.31-1.548-1.5-4 2.092 1.972 3-1a9.5 9.5 0 0 0 2.5 1.5q-1.926 1.946.5 3.5a42.4 42.4 0 0 1 1.5-8.5q-3.126-2.14 0-5-1.121-2.8-1-5a2.43 2.43 0 0 1 2-.5" style="opacity:.999"/><path fill="#cb0550" d="M202.5 561.5h-1v-108h-53v66h-1v-67h55z" style="opacity:.997"/><path fill="#ec2482" d="M201.5 479.5a284 284 0 0 1-1.5-24q-4.387-2.277-7 2-2.505-3.298-6-1-1.665-2.305-4.5-2a9.1 9.1 0 0 0 1 5l-3 2.5q1.73 1.37-.5 2.5l-4-6a11.3 11.3 0 0 1-1.5 3.5l1 1a48.5 48.5 0 0 1-7 4.5q-5.33-1.687-1-5.5-2.145-2.16-5-1l3 1q-1.676 2.838-5 2.5.651 4-3 3.5-.664-2.277 2-3.5-1.827.586-2.5-2-.853 4.355-5 6-.173-2.41 1.5-4.5-1.817-.38-3.5-2.5a544 544 0 0 0-.5 33q.401 2.398-1 4v-45h53z" style="opacity:.999"/><path fill="#ea2385" d="M201.5 479.5v9q-2.048-5.313-5-.5 2.26 1.256 1.5 3.5-1.5 2-3 0-1.391 2.752-3.5 1-.174 4.6-4.5 8-3.5-4-7 0a7.3 7.3 0 0 1-2-3q-.75 1.75-2.5 2.5l2 1q-3.553 2.942-4 6.5-1.846-1.726 0-3.5-2.157-1.861-4.5-1.5.363 2.457 2.5 4.5-1.684 1.565-4 2l2 1a11.3 11.3 0 0 0-3.5 1.5q-.926-1.423.5-2.5a9.5 9.5 0 0 1-2.5-1.5q-1.7 2.567-4.5 1.5-3.393-1.052-3-3.5-.92 2.22-1 4a19 19 0 0 1-2.5-7l-1 4a34 34 0 0 0-1.5-7.5q2.315-3.067-1-4.5-.25-16.507.5-33 1.683 2.12 3.5 2.5-1.673 2.09-1.5 4.5 4.147-1.645 5-6 .673 2.586 2.5 2-2.664 1.223-2 3.5 3.651.5 3-3.5 3.324.338 5-2.5l-3-1q2.855-1.16 5 1-4.33 3.813 1 5.5a48.5 48.5 0 0 0 7-4.5l-1-1a11.3 11.3 0 0 0 1.5-3.5l4 6q2.23-1.13.5-2.5l3-2.5a9.1 9.1 0 0 1-1-5q2.835-.305 4.5 2 3.495-2.298 6 1 2.613-4.277 7-2 .256 12.265 1.5 24" style="opacity:.998"/><path fill="#df1f8b" d="M289.5 513.5v21a44 44 0 0 1-2-6q1.374-4.327-1-8.5-6.855.899-13.5-1.5-1.036 3.586-3 0-4.284 3.492-9.5 1a20.5 20.5 0 0 1-4.5 5 38 38 0 0 1-6-1l-.5 1a10.3 10.3 0 0 0 4 1.5q-1.995 2.45-2 4.5a32.5 32.5 0 0 1-4.5-5l-1 2q-1.517-1.255-3.5-1a4.93 4.93 0 0 1-.5 3l-3.5-3.5 2-1q-1.712-1.112 0-2.5l-2.5-5-1.5 1.5q2.841 1.651 2 4a265 265 0 0 1-3 6.5v-15a4.93 4.93 0 0 0 3-.5q-3.601-1.207.5-2.5 1.756 2.09 4.5 2.5l-3 1a32 32 0 0 0 5 4.5q-.141-2.207 3-3.5a4.93 4.93 0 0 1 3-.5q-.486-4.77 4-3.5-3.414 1.545-2 4.5 3.235-2.022 4-6l2.5 3a6.98 6.98 0 0 1 3.5-2.5q-1.817-1.67 0-3.5l4.5-5a6.55 6.55 0 0 0 3 3q.905-3.279 3.5-.5-1.73 1.37.5 2.5 2.537-3.946 3.5 1 4.866-2.018 3-6.5a20.1 20.1 0 0 1 6-1.5q1.342 4.857 0 9.5a19.6 19.6 0 0 0 2 3.5" style="opacity:.998"/><path fill="#6820a9" d="M747.5 511.5q1.538.595.5 2a2.43 2.43 0 0 1-.5-2" style="opacity:.004"/><path fill="#80159f" d="M614.5 505.5v47q-1.91-5.025-2.5-10-1.062 4.152-4.5 2.5 1.255 1.517 1 3.5-5.923.29 0 1.5-2.594 2.684-2 6.5-3.271-.324-5 2.5.688 2.914-3 4 4.065 3.526-1 6l2 3q-1.423.926-2.5-.5l-2.5 3a4.46 4.46 0 0 1-1.5-2 10 10 0 0 0-2.5 4.5q1.717 3.298 0 6.5-.616-1.143-.5-3-2.397 5.137-6 1-.926 1.423.5 2.5-2.256 2.236-2.5 5.5-3.208-1.904-6.5 0a3.65 3.65 0 0 0 1 1.5q-4.3.043-7.5 2.5-.265-5.784-1.5-11v-18a51 51 0 0 0 2.5 4 11.3 11.3 0 0 1 3.5-1.5 25 25 0 0 1 7-7.5l-2-1q.955-2.704 3.5-4 1.08-2.418-.5-4.5a10.8 10.8 0 0 0 3-2.5 4.46 4.46 0 0 1 1.5 2q1.863-3.061 5.5-3.5l-2-1q4.342-2.687 2.5-7.5l1 2q1.28-2.437 3-1 .684-1.866-1.5-2.5 1.595-1.782 4-1.5-.269-8.607 5-15 1.83 1.817 3.5 0 .2-5.399 0-11 4.053-1.778 7.5-3" style="opacity:.998"/><path fill="#3c0d7b" d="M831.5 453.5h1v90q-1.442 2.648-1 6-1.072-46.963 0-96" style="opacity:.967"/><path fill="#7d1fa4" d="M649.5 513.5q2 1 0 0" style="opacity:.004"/><path fill="#7b1ea4" d="M650.5 515.5q2 1 0 0" style="opacity:.004"/><path fill="#4e17a9" d="M883.5 522.5v41a217 217 0 0 1-1.5-21 6.98 6.98 0 0 1-2.5 3.5q1.128 1.006 1 2.5-1.356 1.063-1 3h-3q-.673 5.95-6 5.5 1.752 2.108-1 3.5-2.318 1.428-5 1a4.93 4.93 0 0 1-.5 3q-2.574.134-5.5-1a35 35 0 0 1-1 4.5 23.6 23.6 0 0 0-5-.5q.21 2.634-1.5 5-.905-3.279-3.5-.5 3.74 2.374-.5 4.5l-1-1a4.46 4.46 0 0 1-1.5 2q-.05-2.233-1.5-4-3.135 4.93-7 2-2.583.167-.5 1.5a97 97 0 0 1-2 6.5v-33q1.239-7.224 1.5-15 2-2 4 0 .513-3.477-1.5-6.5a47 47 0 0 0 4-5.5q-2.339-3.274-2-6.5 1.866-.684 2.5 1.5 2.307-2.743-1.5-4.5a22.2 22.2 0 0 0 6-2.5l-2-1a3.65 3.65 0 0 1 1-1.5q-2.719.07-5-.5.21-2.105 0-4.5 3.303 1.313 7 3a9.5 9.5 0 0 1 1.5 2.5 47 47 0 0 1 5.5-4q1.236 3.371 3 .5l-1-3q3.936-.865 2-4 2.152.467 4-.5a14.8 14.8 0 0 0 3 4.5l-3 2.5q1.18 7.84 5.5 0 1.61 1.17 3.5-.5-5.923-1.21 0-1.5a30 30 0 0 1-.5-5q1.112 1.712 2.5 0 1.5 4 3 0a14.7 14.7 0 0 0-5-1.5 6.98 6.98 0 0 0 2.5-3.5q3.128-1.72 4.5 2a14.8 14.8 0 0 1 3-4.5q-2.091-1.434-2-4 .526-4.656 1.5.5.117-3.236.5-6a1754 1754 0 0 0 2 41" style="opacity:.998"/><path fill="#6d32b3" d="M885.5 510.5a379 379 0 0 1 2 10.5q-2 8 0 16a795 795 0 0 1-2 13.5z" style="opacity:.017"/><path fill="#6521aa" d="M747.5 517.5q2 1 0 0" style="opacity:.004"/><path fill="#6623a9" d="M747.5 519.5q2 1 0 0" style="opacity:.004"/><path fill="#6d097f" d="M616.5 461.5q0 1 1 1a2743 2743 0 0 0-1 38l-2 29v-49q-.25-11.011.5-22l1-1a8.4 8.4 0 0 1 .5 4" style="opacity:.994"/><path fill="#7c1fa3" d="M656.5 522.5q-1 1 0 0" style="opacity:.008"/><path fill="#7d22a1" d="M657.5 524.5q-1 1 0 0" style="opacity:.004"/><path fill="#dc1e8c" d="M287.5 528.5q-3.624-3.906-6.5 1-1.697-1.656-2.5 1 1.392 1.902.5 4-2.976-2.705-6-3-2.824 1.729-2.5 5-3.616.545-4.5-3a23.7 23.7 0 0 1-3.5 3 3.65 3.65 0 0 0 1 1.5 31.3 31.3 0 0 1-8 5 9.5 9.5 0 0 0-1.5 2.5q-.582-1.392-2-2a80 80 0 0 1-4 3q-2.442-.895-5 1-1.895-3.445-5.5-2.5l1 1q-2.139 3.068-3 6.5v-23a265 265 0 0 0 3-6.5q.841-2.349-2-4l1.5-1.5 2.5 5q-1.712 1.388 0 2.5l-2 1 3.5 3.5a4.93 4.93 0 0 0 .5-3q1.983-.255 3.5 1l1-2a32.5 32.5 0 0 0 4.5 5q.005-2.05 2-4.5a10.3 10.3 0 0 1-4-1.5l.5-1a38 38 0 0 0 6 1 20.5 20.5 0 0 0 4.5-5q5.216 2.492 9.5-1 1.964 3.586 3 0 6.645 2.399 13.5 1.5 2.374 4.173 1 8.5" style="opacity:.998"/><path fill="#a2189b" d="M533.5 455.5h1v62h-1q.25-16.507-.5-33-1.435 6.238-1 13l-1-1q-2.475 2.087-1.5 4.5-3.522.52-5.5 3.5a6.8 6.8 0 0 0-1.5-3q-1.509.656 0 2-6.282 4.39 1 6.5-1.724 2.616-4 .5a13.6 13.6 0 0 1-1.5 6q-1.517-1.255-3.5-1a12.9 12.9 0 0 1-.5 5q-3.058 2.636-4.5 6.5l1 1q-2.826.324-5 2 3.75 1.25.5 3.5-1.476-3.442-2.5 1a4.46 4.46 0 0 0 2 1.5 28 28 0 0 0-5 1.5 6.8 6.8 0 0 1-1.5-3q-3.17 2.656.5 4.5-2.09 1.757-2.5 4.5l-5-2a32 32 0 0 0-2.5 4q-1.344-1.509-2 0 5.813 1.48 0 3.5a68 68 0 0 1 0 10 6.8 6.8 0 0 1 3 1.5q-.656 1.509-2 0-1.791 3.024 0 6-1.437.679-2.5 2l-1-1q.455 6.081-1.5 12v-36q1.152-1.145 1.5-3l1 1q5.01-3.162-.5-4.5l2.5-2.5a12.4 12.4 0 0 0 2.5 4q.66-1.797 1-3.5 1.866-.684 2.5 1.5 3.718-4.54 1.5-9.5a40.4 40.4 0 0 1 5.5-8.5q.582 1.392 2 2 2.643-.666-.5-1.5 2-2.5 0-5a15.4 15.4 0 0 0 6-3q-6.46-1.299-1-3l-1-1a39 39 0 0 0 4.5-4.5l1 2q1.67-1.89.5-3.5 2.25-1.25 3.5-3.5a10.3 10.3 0 0 0 1.5 4q1.89-2.78 0-5.5 5.658-.917 0-3 3.586-1.964 0-3a221 221 0 0 0 8-6q-2.701-.476-1-2-6.75-6.697 1.5-2.5l1-1q2.043 2.137 4.5 2.5l-1-1q1.611-1.108 2-3-1.793-2.3 0-4.5a18 18 0 0 0-2-3.5q3.736-.939 0-2.5 3.596-4.88 3-11" style="opacity:1"/><path fill="#6522aa" d="M747.5 525.5q2 1 0 0" style="opacity:.004"/><path fill="#d71d8d" d="M287.5 528.5a44 44 0 0 0 2 6v16q-1.214-2.688-1.5-6a28 28 0 0 1-1.5 5q1.594 2.799-2 1.5-1.986-4.063-5-1 1.426 1.077.5 2.5-4.201-3.078-6.5 2.5a55 55 0 0 0-8 4.5q-2.022-2.942-4-.5.913 3.087 3 2.5a7.3 7.3 0 0 1-2 3q.017-1.412-1.5-2-6.155 1.371-11 5-1.79-2.217-1.5-4a37.5 37.5 0 0 1-3 7q-2.484-2.283-3.5 1a11.3 11.3 0 0 0-3.5-1.5q1.926-1.946-.5-3.5-.354 2.428-2.5 3v-17q.861-3.432 3-6.5l-1-1q3.605-.945 5.5 2.5 2.558-1.895 5-1a80 80 0 0 0 4-3q1.418.608 2 2a9.5 9.5 0 0 1 1.5-2.5 31.3 31.3 0 0 0 8-5 3.65 3.65 0 0 1-1-1.5 23.7 23.7 0 0 0 3.5-3q.884 3.545 4.5 3-.324-3.271 2.5-5 3.024.295 6 3 .892-2.098-.5-4 .803-2.656 2.5-1 2.876-4.906 6.5-1" style="opacity:.998"/><path fill="#7b22a3" d="M657.5 526.5q2 1 0 0" style="opacity:.012"/><path fill="#7720a5" d="M659.5 529.5q2 1 0 0" style="opacity:.008"/><path fill="#6522a8" d="M747.5 533.5q2 1 0 0" style="opacity:.004"/><path fill="#671e9c" d="M702.5 534.5q2 1 0 0" style="opacity:.008"/><path fill="#7620a6" d="M663.5 536.5q2 1 0 0" style="opacity:.008"/><path fill="#6521a5" d="M747.5 536.5q2 1 0 0" style="opacity:.004"/><path fill="#c6106d" d="M291.5 489.5v94q-1.203 2.178-1.5 5a129 129 0 0 1-.5-16v-53z" style="opacity:.655"/><path fill="#4e15a5" d="M801.5 535.5v40q-1.083-.626-1.5-2-.892 2.098.5 4-2.085 2.504-1 5-3.736 1.561 0 2.5-2.098.892-4-.5-1.355 3.535-5 4.5 2 1.5 0 3-2.816.864-5.5-.5-3.787 1.779-5 4-2.823-.89-3-4-.085 6.71-6.5 8a4.46 4.46 0 0 1-1.5-2q-1.676.247-3.5 1a4.46 4.46 0 0 1-1.5-2 15.4 15.4 0 0 0-3 6q-2.558-3.716-6-4-.684-1.866 1.5-2.5-1.787-1.047-3-2.5-.954-10.107 3.5-19 1.845-2.28 3.5-2.5-.901-2.407-3-4 3.61-1.169 5 2.5 1.382-3.384 5-3-.347-5.332 4-4.5 3.585-4.174-1-5 1.382-2.634 3.5-.5a20 20 0 0 0 4.5-3 3.65 3.65 0 0 1 1.5 1q1.942-2.011 1.5-4a4.46 4.46 0 0 1 1.5 2 66 66 0 0 1 2-10l1 1a4.46 4.46 0 0 1 1.5-2q1.816 1.16 0 2.5 1 1 2 0 3.72-1.372 2-4.5 4.244-3.097 7.5 2 3.074-4.516-.5-8.5a42.4 42.4 0 0 0 1.5-8.5q.268 5.288 1.5 10" style="opacity:.998"/><path fill="#9e189b" d="M533.5 517.5v1q-1.152 1.145-1.5 3l-1-1-1 4-4-2q-1.169 3.61 2.5 5 1.697 2.361.5 5l-1-2q-3.2 1.132-5 4a4.93 4.93 0 0 1-.5-3q-1.762-.329-3 1 .519 1.794 1.5 0 .724 1.422.5 3-1.762-.329-3 1 .503 2.254 0 4l-3-1.5q1.438-4.036-2-1 1.26 2.5-1.5.5-.492 7.376-1.5 14-3.604.16-5.5-3-.244 3.264-2.5 5.5 1.526 1.574.5 3.5-2.514-.841-4-3-.31 4.384-4.5 5.5 3.103.486 1 2.5l-4 3q1.239 1.427.5 3a30 30 0 0 0-3.5-3q-1.791-2.976 0-6 1.344 1.509 2 0a6.8 6.8 0 0 0-3-1.5 68 68 0 0 0 0-10q5.813-2.02 0-3.5.656-1.509 2 0a32 32 0 0 1 2.5-4l5 2q.41-2.743 2.5-4.5-3.67-1.844-.5-4.5a6.8 6.8 0 0 0 1.5 3 28 28 0 0 1 5-1.5 4.46 4.46 0 0 1-2-1.5q1.024-4.442 2.5-1 3.25-2.25-.5-3.5 2.174-1.676 5-2l-1-1q1.442-3.864 4.5-6.5a12.9 12.9 0 0 0 .5-5q1.983-.255 3.5 1a13.6 13.6 0 0 0 1.5-6q2.276 2.116 4-.5-7.282-2.11-1-6.5-1.509-1.344 0-2a6.8 6.8 0 0 1 1.5 3q1.978-2.98 5.5-3.5-.975-2.413 1.5-4.5l1 1q-.435-6.762 1-13 .75 16.493.5 33" style="opacity:.998"/><path fill="#961fa0" d="M563.5 539.5q2 1 0 0" style="opacity:.004"/><path fill="#7821a5" d="M665.5 539.5q2 1 0 0" style="opacity:.008"/><path fill="#6b22a6" d="M699.5 539.5q2 1 0 0" style="opacity:.008"/><path fill="#cf0f69" d="m233.5 496.5 2 15v39l-2-5z" style="opacity:1"/><path fill="#751fa3" d="M667.5 542.5q2 1 0 0" style="opacity:.004"/><path fill="#971081" d="M483.5 476.5v91q-1.488-.257-2 1-1.47-27.051 0-57z" style="opacity:.997"/><path fill="#79149e" d="M614.5 552.5v26a2.43 2.43 0 0 1-2-.5q1.01-2.626 1-5l-1.5-1.5q-.318 4.41-4.5 5.5 1.701 1.524-1 2l2 1q-2.701 5.23-8.5 6.5l1 7a4.46 4.46 0 0 0-1.5-2 8.2 8.2 0 0 1-4 2.5l1 1q-4.567.539-1 2-2.332 2.469-5 1 2.107 4.998-2.5 7.5-1.891-.389-3-2-4.101 1.293-.5 2.5a6.98 6.98 0 0 0-2.5 3.5q-1.077-1.426-2.5-.5 1.87 2.241 0 4.5a26.6 26.6 0 0 0-7.5 3l-3-2q-.315 2.337-1.5 4v-36q1.235 5.216 1.5 11 3.2-2.457 7.5-2.5a3.65 3.65 0 0 1-1-1.5q3.292-1.904 6.5 0 .244-3.264 2.5-5.5-1.426-1.077-.5-2.5 3.603 4.137 6-1-.116 1.857.5 3 1.717-3.202 0-6.5a10 10 0 0 1 2.5-4.5 4.46 4.46 0 0 0 1.5 2l2.5-3q1.077 1.426 2.5.5l-2-3q5.065-2.474 1-6 3.688-1.086 3-4 1.729-2.824 5-2.5-.594-3.816 2-6.5-5.923-1.21 0-1.5.255-1.983-1-3.5 3.438 1.652 4.5-2.5.59 4.975 2.5 10" style="opacity:.998"/><path fill="#6623a7" d="M747.5 544.5q1.538.595.5 2a2.43 2.43 0 0 1-.5-2" style="opacity:.006"/><path fill="#6622a6" d="M747.5 547.5q2 1 0 0" style="opacity:.004"/><path fill="#98179b" d="M533.5 518.5a171.6 171.6 0 0 1-2.5 31l-2.5 3q-2.197-1.664-3 1.5l1 1q-2.342.477-3.5 2.5l-1-2a18.6 18.6 0 0 1-3.5 6.5q-.01 2.374 1 5a29.5 29.5 0 0 0-4.5 2.5l-1-1q-2.338 2.575-2.5 6-3.825.091-4.5 4-2.046-1.137-3.5 1.5l1 1-3 1q1.73 1.37-.5 2.5-1.313-3.02-4 0a3.65 3.65 0 0 0-1.5-1q-.08 1.78-1 4a4.46 4.46 0 0 1-1.5-2q-1.5 2-3 0-3.47 2.803-1 6l1-3q1 2.5 0 5-1.34-1.817-2.5 0a18 18 0 0 0 2 3.5l-3 1 1 1q-4.27 1.319-2 5a36 36 0 0 1-2 4.5v-29q1.955-5.919 1.5-12l1 1q1.063-1.321 2.5-2a30 30 0 0 1 3.5 3q.739-1.573-.5-3l4-3q2.103-2.014-1-2.5 4.19-1.116 4.5-5.5 1.486 2.159 4 3 1.026-1.926-.5-3.5 2.256-2.236 2.5-5.5 1.896 3.16 5.5 3 1.008-6.624 1.5-14 2.76 2 1.5-.5 3.438-3.036 2 1l3 1.5q.503-1.746 0-4 1.238-1.329 3-1a4.93 4.93 0 0 0-.5-3q-.981 1.794-1.5 0 1.238-1.329 3-1a4.93 4.93 0 0 0 .5 3q1.8-2.868 5-4l1 2q1.197-2.639-.5-5-3.669-1.39-2.5-5l4 2 1-4 1 1q.348-1.855 1.5-3" style="opacity:.998"/><path fill="#9e21a3" d="M537.5 548.5q2 1 0 0" style="opacity:.004"/><path fill="#6c27a5" d="M694.5 548.5q2 1 0 0" style="opacity:.012"/><path fill="#4715a3" d="M880.5 548.5q-.4 3.586 1 7.5-3.93 11.933 0 24-2 .934-4 4 2 2 0 4 3.648 1.63-1 1.5a4.93 4.93 0 0 1-.5 3q-5.246-5.193-6.5 3a4.93 4.93 0 0 1 3 .5 23.7 23.7 0 0 0-3 3.5 4.46 4.46 0 0 1-1.5-2 6.8 6.8 0 0 1-1.5 3l-1-2q-2.378 2.38-5 2.5 1.554 2.426 3.5.5 1 1.5 0 3-1.72-1.437-3 1-3.476-4.023-6.5.5l1 1q-3.936 3.538-2-1-3.167-2.167-6.5.5-.476-2.701-2-1a7.25 7.25 0 0 0-2.5-2l-5 6a3.65 3.65 0 0 1-1.5-1 142.8 142.8 0 0 0-1.5 28v9q2.872-.426 5 1h-6v-63a97 97 0 0 0 2-6.5q-2.083-1.333.5-1.5 3.865 2.93 7-2 1.45 1.767 1.5 4a4.46 4.46 0 0 0 1.5-2l1 1q4.24-2.126.5-4.5 2.595-2.779 3.5.5 1.71-2.366 1.5-5a23.6 23.6 0 0 1 5 .5 35 35 0 0 0 1-4.5q2.926 1.134 5.5 1a4.93 4.93 0 0 0 .5-3q2.682.428 5-1 2.752-1.392 1-3.5 5.327.45 6-5.5h3q-.356-1.937 1-3" style="opacity:.998"/><path fill="#b1269c" d="M460.5 549.5q2 1 0 0" style="opacity:.004"/><path fill="#6522a8" d="M747.5 549.5q1.538.595.5 2a2.43 2.43 0 0 1-.5-2" style="opacity:.006"/><path fill="#dd2089" d="M201.5 523.5v41a39.5 39.5 0 0 0-2.5-5q-2.014 1.07-4-1-3.144 1.823.5 2.5-2.342.477-3.5 2.5a3.65 3.65 0 0 0-1.5-1q-3.754.468-6.5 4-1.774-1.846-3.5 0 .519 1.794 1.5 0 3.117 5.886-2 2 1.469 2.668-1 5l-1-4q-1.25 2.25-3.5 3.5 1.926 1.946-.5 3.5-2.377-1.314-3-4a14.3 14.3 0 0 1-6.5 2.5q2.159 3.457-1.5 5.5-5.435-8.462-5 1a19.9 19.9 0 0 1-3.5-4q-2.044 2.069-3-.5.036-3.87-1.5-7.5a242 242 0 0 0-.5 22h-1v-40a539 539 0 0 0 1.5-33 287 287 0 0 0 2.5 22.5l-1 1q1.75.75 2.5 2.5 4.684-3.481 9 1a7.25 7.25 0 0 1 2.5-2q1.548 2.31 4 1.5-1.526-1.574-.5-3.5l1 2q2.862-5.985 9-3a16.2 16.2 0 0 0 3.5-1.5q-1.926-1.946.5-3.5 1.61 1.17 3.5-.5a6.8 6.8 0 0 1-3-1.5 32 32 0 0 1 4.5-5q.724 1.422.5 3 3.112.297 6 .5l-1-1a26.7 26.7 0 0 0 1.5-6.5l1 4q2.428-3.11 4-8 .348 1.855 1.5 3" style="opacity:.997"/><path fill="#d11c8e" d="M289.5 550.5v22q-1.226-3.703-1.5-8l-2 6q-2.02-4.124-4-1-3.45-3.672-4 2a9.5 9.5 0 0 0-2.5-1.5q2.184-.634 1.5-2.5-1.112 1.711-2.5 0a10.8 10.8 0 0 1-3 2.5l2 1q-2.137 2.043-2.5 4.5-1-4-2 0-.539-4.567-2-1-1.806-1.457-1.5-3-4.442 1.024-1 2.5-3.567 1.461 1 2a14.8 14.8 0 0 0-3 4.5 29 29 0 0 1-4 1.5q1.73 1.37-.5 2.5-3.408-1.11-6 0a20.5 20.5 0 0 0-2.5 3.5q-3.82.101-6.5 2.5a7.3 7.3 0 0 0-2-3q-2-2-4 0 1.101 3.83-1.5 7v-25q2.146-.572 2.5-3 2.426 1.554.5 3.5 1.9.463 3.5 1.5 1.016-3.283 3.5-1a37.5 37.5 0 0 0 3-7q-.29 1.783 1.5 4 4.845-3.629 11-5 1.517.588 1.5 2a7.3 7.3 0 0 0 2-3q-2.087.587-3-2.5 1.978-2.442 4 .5a55 55 0 0 1 8-4.5q2.299-5.578 6.5-2.5.926-1.423-.5-2.5 3.014-3.063 5 1 3.594 1.299 2-1.5a28 28 0 0 0 1.5-5q.286 3.312 1.5 6" style="opacity:.997"/><path fill="#7424a3" d="M673.5 550.5q-1 1 0 0" style="opacity:.004"/><path fill="#921599" d="M533.5 517.5h1v62h-1a25.9 25.9 0 0 0-1-10q-.923 2.493-2.5 6l-1-2a48 48 0 0 0-6.5 4.5 3.94 3.94 0 0 1 1 2q-.588 1.516-2 1.5 1.238 1.427.5 3-1.566-1.684-2-4-2.536 3.313.5 5.5a26 26 0 0 1-5 3.5q-3.507-2.266-2 1a41 41 0 0 0-4 6q-.752 1.532-2 .5 1.426-1.077.5-2.5l-4.5 4.5 1 1a122 122 0 0 0-2.5 7.5q-2.056-6.819-6.5-1.5 2.364 3.458-1.5 6.5-1.436-3.314-3.5.5.686.621 1 1.5-1.16 1.817-2.5 0-3.814 2.064-.5 3.5-4.46 2.259-1 5-1.13 2.23-2.5.5-.279 3.804-1.5 7v-22a36 36 0 0 0 2-4.5q-2.27-3.681 2-5l-1-1 3-1a18 18 0 0 1-2-3.5q1.16-1.817 2.5 0 1-2.5 0-5l-1 3q-2.47-3.197 1-6 1.5 2 3 0a4.46 4.46 0 0 0 1.5 2q.92-2.22 1-4a3.65 3.65 0 0 1 1.5 1q2.687-3.02 4 0 2.23-1.13.5-2.5l3-1-1-1q1.454-2.637 3.5-1.5.675-3.909 4.5-4 .162-3.425 2.5-6l1 1a29.5 29.5 0 0 1 4.5-2.5q-1.01-2.626-1-5a18.6 18.6 0 0 0 3.5-6.5l1 2q1.158-2.023 3.5-2.5l-1-1q.803-3.164 3-1.5l2.5-3a171.6 171.6 0 0 0 2.5-31z" style="opacity:.998"/><path fill="#7825a5" d="M671.5 552.5q2 1 0 0" style="opacity:.004"/><path fill="#6424a5" d="M747.5 552.5q2 1 0 0" style="opacity:.004"/><path fill="#530c79" d="M645.5 501.5a138 138 0 0 1 9 13 58.5 58.5 0 0 1 5 9 5030 5030 0 0 1 12 19q.648 1.815 2 3 4.018 7.041 8 14h-1a72 72 0 0 1-7-9 257 257 0 0 0-16-26q.257-1.487-1-2a271 271 0 0 0-11-19z" style="opacity:.824"/><path fill="#730161" d="M535.5 568.5h-1v-113q-.482-2.322-3-2h-48q24.884-1.498 52-1z" style="opacity:.983"/><path fill="#6423a7" d="M747.5 557.5q2 1 0 0" style="opacity:.004"/><path fill="#360c75" d="M832.5 543.5v76h-1q-1.628-34.313 0-70-.442-3.352 1-6" style="opacity:.968"/><path fill="#d71e8b" d="M201.5 564.5v19q-4.26-.46-2.5-4-2.502 5.605-4 0-2.426 1.554-.5 3.5-1.423.926-2.5-.5-1.297 2.588-2 5-5.941-3.693-7 4-1-4-2 0a3.65 3.65 0 0 0-1.5-1q-.05 2.233-1.5 4l-2-4q-3.327 2.388-5 6a7.3 7.3 0 0 0-2-3q-1.94 2.68-1.5 5-2.545-1.296-3.5-4-2.676 3.755-5 0l-1 2q-2.98-5.8-1.5 0-1.5 4-3 0 1.238-1.427.5-3-1 2-2 0 .854-3.29-1-6-.315 2.337-1.5 4-.25-11.011.5-22a18.6 18.6 0 0 1 1.5 7.5q.956 2.569 3 .5a19.9 19.9 0 0 0 3.5 4q-.435-9.462 5-1 3.659-2.043 1.5-5.5a14.3 14.3 0 0 0 6.5-2.5q.623 2.686 3 4 2.426-1.554.5-3.5 2.25-1.25 3.5-3.5l1 4q2.469-2.332 1-5 5.117 3.886 2-2-.981 1.794-1.5 0 1.726-1.846 3.5 0 2.746-3.532 6.5-4a3.65 3.65 0 0 1 1.5 1q1.158-2.023 3.5-2.5-3.644-.677-.5-2.5 1.986 2.07 4 1a39.5 39.5 0 0 1 2.5 5" style="opacity:.997"/><path fill="#6523a3" d="M747.5 563.5q2 1 0 0" style="opacity:.004"/><path fill="#9a20a3" d="M537.5 564.5q2 1 0 0" style="opacity:.004"/><path fill="#7a2fa5" d="M680.5 564.5q2 1 0 0" style="opacity:.004"/><path fill="#6423a5" d="M747.5 565.5q1.538.595.5 2a2.43 2.43 0 0 1-.5-2" style="opacity:.004"/><path fill="#c5106e" d="m233.5 545.5 2 5v56l-2 1z" style="opacity:.536"/><path fill="#7a32a4" d="M680.5 566.5q2 1 0 0" style="opacity:.004"/><path fill="#ae0e72" d="M406.5 518.5q-.426 2.872 1 5a20.7 20.7 0 0 0-1 5 244 244 0 0 1-3.5 15 98 98 0 0 0-5.5 12q-22.219 32.625-62 36h-4q-18.007.25-36-.5a792 792 0 0 0 40-1.5q63.13-8.131 71-71" style="opacity:1"/><path fill="#8c1599" d="M533.5 579.5a45.6 45.6 0 0 1-1.5 14q-2.436.105-5.5 1.5a14.7 14.7 0 0 1 5 1.5q-1.711 1.388 0 2.5-3.256.254-5.5-2.5-2.717 1.386.5 2.5-2.011 1.942-4 1.5 1.392 1.902.5 4l-1-2q-4.104 3.028-5 7l-5-1q-.466 1.863 1.5 3-2.752 1.392-1 3.5a6.98 6.98 0 0 0-3.5 2.5q-3.363-1.012-6.5 1.5l2 1a56 56 0 0 1-4.5 5.5q-2.5-1.26-.5 1.5-2.244.76-3.5-1.5-.299 2.853-2.5 4.5l1 1q-3.347.933-5.5 3.5l-1-1q-2.91 4.752.5 9-1.183 2.982-3.5 1-.315-2.337-1.5-4v-9q1.221-3.196 1.5-7 1.37 1.73 2.5-.5-3.46-2.741 1-5-3.314-1.436.5-3.5 1.34 1.817 2.5 0a3.65 3.65 0 0 0-1-1.5q2.064-3.814 3.5-.5 3.864-3.042 1.5-6.5 4.444-5.319 6.5 1.5a122 122 0 0 1 2.5-7.5l-1-1 4.5-4.5q.926 1.423-.5 2.5 1.248 1.032 2-.5a41 41 0 0 1 4-6q-1.507-3.266 2-1a26 26 0 0 0 5-3.5q-3.036-2.187-.5-5.5.434 2.316 2 4 .738-1.573-.5-3 1.412.016 2-1.5a3.94 3.94 0 0 0-1-2 48 48 0 0 1 6.5-4.5l1 2q1.577-3.507 2.5-6a25.9 25.9 0 0 1 1 10" style="opacity:.998"/><path fill="#901d9e" d="M563.5 571.5q2 1 0 0" style="opacity:.004"/><path fill="#6425a5" d="M747.5 571.5q2 1 0 0" style="opacity:.008"/><path fill="#9920a3" d="M537.5 572.5q2 1 0 0" style="opacity:.004"/><path fill="#6525a6" d="M747.5 573.5q2 1 0 0" style="opacity:.004"/><path fill="#c91b90" d="M288.5 590.5a39 39 0 0 0-4.5 2q-1.524-1.701-2 1-1.207-3.601-2.5.5l1 1a25.5 25.5 0 0 0-4 4.5q-2.124-2.459-5-2.5.482 2.906-3 4.5a3.65 3.65 0 0 1-1.5-1l-6 8-3-1q-1 4-2 0a26.7 26.7 0 0 1-6.5 1.5l3 1q-1.794.981 0 1.5 1.236-3.371 3-.5-3.752 4.152-7.5 1.5-.926 1.423.5 2.5a11.3 11.3 0 0 0-3.5 1.5q-2.943-.704-5.5 2 2.032 1.762-.5 3l-1-2q-1.062 1.321-2.5 2v-4q.514-4.141 3-7 3.552 2.585 8 2 .544-3.616-3-4.5a20.5 20.5 0 0 1 2.5-3.5l1 1q.582-1.392 2-2 1.647 1.326 1.5 3 1.393-1.783 1-4a8.4 8.4 0 0 1-4-.5q2.561-2.265 5-4.5-3.984-4.243 1.5-3l2.5-3q3.044 1.694 1-1.5l1.5-1.5q1.902.174 4 1 2.442-1.978-.5-4a29 29 0 0 0 1.5-4q.435 2.316 2 4 .739-1.573-.5-3a174 174 0 0 0 3.5-3l1 2q3.194-2.044 1.5 1 1.827-.586 2.5 2 2.112-7.335 3.5-1a19.9 19.9 0 0 1 3.5-4l1 1 5-4 1.5 1.5a456 456 0 0 0-3 4l3 1q-1.817 1.67 0 3.5a4.46 4.46 0 0 1-2 1.5q1.321 1.063 2 2.5" style="opacity:.998"/><path fill="#ac1896" d="M460.5 534.5a123.4 123.4 0 0 1-7 27q-2.276.016-3.5 2l-1-1a15.3 15.3 0 0 1-1.5 4.5q-2.152-.467-4 .5-1.89 2.78 0 5.5-3.124 1.98 1 4-1.608 1.926-4 1-3.954 3.205-5 7l3 1q-3.6.279-7 1.5a108 108 0 0 0-10.5 8l-1 4-1-2a14.5 14.5 0 0 0-4 5q-.634-2.184-2.5-1.5a29.5 29.5 0 0 0-2.5 4.5q-5.848-6.531-5 3-.645-5.99-4.5-2 3.86 4.66-2 6.5 1.683 2.42-1.5 3.5-1.461-3.567-2 1l-1-1a30.8 30.8 0 0 1-8 5q-2.643-.666.5-1.5-2.78-.827-4 2l1 1q-1.89 1.67-3.5.5-.75 1.75-2.5 2.5 3.46 1.168 6-1.5 2.401.803 1.5 3-6.235 2.164-.5 6-7.753 4.929-17 7-3.333.483-5.5-2l-2 2q-1.5-2-3 0l-1-2a26.7 26.7 0 0 1-6.5 1.5 4.46 4.46 0 0 1 2 1.5q-1.783 1.393-4 1 .594-3.816-2-6.5 1.884-.625 2-2.5l3-3q-1.275-4.142 3-2a4.46 4.46 0 0 0 2-1.5q.795-1.884 0-4.5a25.5 25.5 0 0 1 4-4.5q-2.184-.634-1.5-2.5l1 1q1.63-3.648 1.5 1 2.951-.359 5.5 1 11.005-3.804-.5-2.5.841-2.514 3-4l-1-1a7.3 7.3 0 0 0 3-2q4.019.237 8 1.5v-3a12.9 12.9 0 0 0 5-.5q2.826-3.988 6.5-4.5 1.742 1.03 3.5.5-2.633-1.08-2.5-3.5 2.578.398 5.5 1.5 1.701-1.524-1-2 3.381-.936 5-4 1.423-.926 2.5.5l6-6 3 3q.861-2.988 3.5-4.5l-1-1 7-3-2-1a11.53 11.53 0 0 0 4.5-3.5q1.574 1.526 3.5.5l-2-1 4-1a6.8 6.8 0 0 1-3-1.5q1.638-1.996 4-2.5-2.184-.634-1.5-2.5 1.61 1.17 3.5-.5-.883-2.81 2-5-1.656-1.697 1-2.5 2.746 2.143 6 1.5-1.684-1.566-4-2 5.672-.55 2-4 3.351-1.85 4.5-5.5 3.438 1.652 4.5-2.5a7.25 7.25 0 0 1-2-2.5q2.492-3.888 6.5-2a103 103 0 0 0 2.5-8q2.999-1.512 5-4" style="opacity:.997"/><path fill="#d11d8b" d="M201.5 583.5v37q-1.025-10.101-2-20.5-5.399-.526-1 3a21.4 21.4 0 0 0-5 0l2 1q-4.171.21-6.5 3.5-2.377-1.314-3-4-2.416 3.659-2.5 8-3.399.538-5.5-2a28 28 0 0 1-1.5 5q-2.259 1.87-4.5 0-2.258 4.46-5 1-1 6-2 0a15 15 0 0 1-3.5 3 81 81 0 0 0-6.5 0q-1.74-3.446-3 1l-1-1q-2.19 10.235-1.5 21v7h-1v-55h1q1.185-1.663 1.5-4 1.854 2.71 1 6 1 2 2 0 .738 1.573-.5 3 1.5 4 3 0-1.48-5.8 1.5 0l1-2q2.324 3.755 5 0 .955 2.704 3.5 4-.44-2.32 1.5-5a7.3 7.3 0 0 1 2 3q1.673-3.612 5-6l2 4q1.45-1.767 1.5-4a3.65 3.65 0 0 1 1.5 1q1-4 2 0 1.059-7.693 7-4 .703-2.412 2-5 1.077 1.426 2.5.5-1.926-1.946.5-3.5 1.498 5.605 4 0-1.76 3.54 2.5 4" style="opacity:.998"/><path fill="#48139f" d="M751.5 470.5h1v56q-.511 38.536 1 67 1.213 1.453 3 2.5-2.184.634-1.5 2.5 3.442.284 6 4a15.4 15.4 0 0 1 3-6 4.46 4.46 0 0 0 1.5 2q1.824-.753 3.5-1a4.46 4.46 0 0 0 1.5 2q6.415-1.29 6.5-8 .177 3.11 3 4 1.213-2.221 5-4 2.684 1.364 5.5.5 2-1.5 0-3 3.645-.965 5-4.5 1.902 1.392 4 .5-3.736-.939 0-2.5-1.085-2.496 1-5-1.392-1.902-.5-4 .417 1.374 1.5 2v9a145 145 0 0 1-1 24 4.46 4.46 0 0 0-1.5 2l-1-1-1 3-3-1a21.5 21.5 0 0 1-5 6l-1-1q-.539 4.567-2 1-1.28 2.437-3 1a4.46 4.46 0 0 0-1.5 2q1.91 4.157-3 5-2.919-2.38-4.5 1-1.7-2.567-4.5-1.5 1.73 1.37-.5 2.5l-1-1q-.504 2.361-2.5 4a7.25 7.25 0 0 1-2.5-2q-.926 1.423.5 2.5-1.5 1-3 0 .664-2.277-2-3.5-1.635 1.336 0 3-5.136 4.398-4.5-3-.75 9.487-.5 19a3873 3873 0 0 1-2-176" style="opacity:.998"/><path fill="#6425a5" d="M747.5 581.5q2 1 0 0" style="opacity:.004"/><path fill="#ab2394" d="M446.5 582.5q2 1 0 0" style="opacity:.008"/><path fill="#941fa0" d="M537.5 584.5q2 1 0 0" style="opacity:.004"/><path fill="#6326a1" d="M747.5 584.5q1.538.595.5 2a2.43 2.43 0 0 1-.5-2" style="opacity:.004"/><path fill="#cb1b8e" d="M289.5 572.5q-.249 8.016.5 16 .297-2.822 1.5-5-.359 2.951 1 5.5 21.494.75 43 .5a792 792 0 0 1-40 1.5q17.993.75 36 .5-11.724 1.488-24 1-9.874.516-19-2-.679-1.437-2-2.5a4.46 4.46 0 0 0 2-1.5q-1.817-1.83 0-3.5l-3-1a456 456 0 0 1 3-4l-1.5-1.5-5 4-1-1a19.9 19.9 0 0 0-3.5 4q-1.388-6.335-3.5 1-.673-2.586-2.5-2 1.694-3.044-1.5-1l-1-2q-1.595 1.407-3.5 3 1.239 1.427.5 3-1.565-1.684-2-4a29 29 0 0 1-1.5 4q2.942 2.022.5 4-2.098-.826-4-1l-1.5 1.5q2.044 3.194-1 1.5l-2.5 3q-5.484-1.243-1.5 3a377 377 0 0 1-5 4.5 8.4 8.4 0 0 0 4 .5q.393 2.217-1 4 .147-1.674-1.5-3-1.418.608-2 2l-1-1a20.5 20.5 0 0 0-2.5 3.5q3.544.884 3 4.5-4.448.585-8-2-2.486 2.859-3 7v-23q2.601-3.17 1.5-7 2-2 4 0a7.3 7.3 0 0 1 2 3q2.68-2.399 6.5-2.5a20.5 20.5 0 0 1 2.5-3.5q2.592-1.11 6 0 2.23-1.13.5-2.5a29 29 0 0 0 4-1.5 14.8 14.8 0 0 1 3-4.5q-4.567-.539-1-2-3.442-1.476 1-2.5-.306 1.543 1.5 3 1.461-3.567 2 1 1-4 2 0 .363-2.457 2.5-4.5l-2-1a10.8 10.8 0 0 0 3-2.5q1.388 1.711 2.5 0 .684 1.866-1.5 2.5 1.375.561 2.5 1.5.55-5.672 4-2 1.98-3.124 4 1l2-6q.274 4.297 1.5 8" style="opacity:.998"/><path fill="#8b1d9d" d="M563.5 587.5q2 1 0 0" style="opacity:.004"/><path fill="#6428a2" d="M747.5 587.5q2 1 0 0" style="opacity:.004"/><path fill="#c31a90" d="M288.5 590.5q9.126 2.516 19 2-3.822 1.787-7 5-1.427-1.238-3-.5a26 26 0 0 1-4 4.5q1.966 1.137 1.5 3-2.601-1.707-5.5-1.5.686.621 1 1.5a23.7 23.7 0 0 0-3.5 3q-.926 1.423.5 2.5-2.24 2.052-4.5.5l-1 2q-.634-2.184-2.5-1.5l1 1q-4.864.425-1 2.5a4.46 4.46 0 0 1-1.5 2q-1-2-2 0a6.55 6.55 0 0 1-3-3 46.6 46.6 0 0 0-5.5 6q-1.561-3.736-2.5 0l-1-1q.05 5.42-5 7a4.46 4.46 0 0 0-1.5-2 15 15 0 0 1-3.5 3l-1-1q-3.876 4.257 2.5 5.5-8.122-.7-4 5.5-1.975-.28-4 2 1.414 2.955-2 4.5 7.956 2.22 0 3.5h-10v-25q1.438-.679 2.5-2l1 2q2.532-1.238.5-3 2.557-2.704 5.5-2a11.3 11.3 0 0 1 3.5-1.5q-1.426-1.077-.5-2.5 3.748 2.652 7.5-1.5-1.764-2.871-3 .5-1.794-.519 0-1.5l-3-1a26.7 26.7 0 0 0 6.5-1.5q1 4 2 0l3 1 6-8q.621.686 1.5 1 3.482-1.594 3-4.5 2.876.041 5 2.5a25.5 25.5 0 0 1 4-4.5l-1-1q1.293-4.101 2.5-.5.476-2.701 2-1a39 39 0 0 1 4.5-2" style="opacity:.998"/><path fill="#6226a2" d="M747.5 589.5q1.538.595.5 2a2.43 2.43 0 0 1-.5-2" style="opacity:.004"/><path fill="#42139d" d="M883.5 563.5v49a284 284 0 0 1-1.5-24q.144 3.73-2.5 5 .476 1.721 2 2.5-1.92 4.341-2 9.5a47.7 47.7 0 0 0 1 9.5 37 37 0 0 0-2 4.5q-1.783 1.393-4 1-.329 1.762 1 3l1-2 3 1.5a39 39 0 0 0-4.5 4.5q-3.137-4.553-7.5-1.5l1 1q-5.618-.053-2 3a16.2 16.2 0 0 1-3.5 1.5q-2.197-1.245-4.5-.5l2 1q-1.255 1.517-1 3.5a15.9 15.9 0 0 0-6.5 1q-2.838-.416-4-3l-1 3q-2.5-2-5 0v-4a11.3 11.3 0 0 1-3.5 1.5l1 1q-2.904 2.043-4 5.5-.21-1.604 0-3.5a2.43 2.43 0 0 0-2-.5 142.8 142.8 0 0 1 1.5-28q.621.686 1.5 1l5-6a7.25 7.25 0 0 1 2.5 2q1.524-1.701 2 1 3.333-2.667 6.5-.5-1.936 4.538 2 1l-1-1q3.024-4.523 6.5-.5 1.28-2.437 3-1 1-1.5 0-3-1.946 1.926-3.5-.5 2.622-.12 5-2.5l1 2a6.8 6.8 0 0 0 1.5-3 4.46 4.46 0 0 0 1.5 2 23.7 23.7 0 0 1 3-3.5 4.93 4.93 0 0 0-3-.5q1.254-8.193 6.5-3a4.93 4.93 0 0 0 .5-3q4.648.13 1-1.5 2-2 0-4 2-3.066 4-4-3.93-12.067 0-24-1.4-3.914-1-7.5.128-1.494-1-2.5a6.98 6.98 0 0 0 2.5-3.5q.256 10.768 1.5 21" style="opacity:.998"/><path fill="#430466" d="M616.5 584.5q.421 27.284 0 55a379 379 0 0 1 0-55" style="opacity:.975"/><path fill="#bd1991" d="M331.5 591.5h4q.116 1.875 2 2.5-2.964 3.117-3.5 6.5-.634-2.184-2.5-1.5-.08 3.089.5 6.5-.612-2.865-3.5-3a15.8 15.8 0 0 0-5 3 10.3 10.3 0 0 1-3-1q-.616 1.143-.5 3-3.127-1.72-4.5 2-1.824-.753-3.5-1-1.565 1.684-2 4-2.741-3.46-5 1-.677-3.644-2.5-.5.699 1.948 0 4.5-5.497 1.728-11 .5 3.643 2.033 4 5-3.912 2.779-7-.5-4.722.96-1 3-1.203 5.931-5.5 2-3.993.418-2.5 3.5l-2 1q6.293 2.07 2 7 .237 2.965.5 6.5-4.43.117-9-1-1.075.816-1.5 2h-24q7.956-1.28 0-3.5 3.414-1.545 2-4.5 2.025-2.28 4-2-4.122-6.2 4-5.5-6.376-1.243-2.5-5.5l1 1a15 15 0 0 0 3.5-3 4.46 4.46 0 0 1 1.5 2q5.05-1.58 5-7l1 1q.939-3.736 2.5 0a46.6 46.6 0 0 1 5.5-6 6.55 6.55 0 0 0 3 3q1-2 2 0a4.46 4.46 0 0 0 1.5-2q-3.864-2.075 1-2.5l-1-1q1.866-.684 2.5 1.5l1-2q2.26 1.552 4.5-.5-1.426-1.077-.5-2.5a23.7 23.7 0 0 1 3.5-3 3.65 3.65 0 0 0-1-1.5q2.899-.207 5.5 1.5.466-1.863-1.5-3a26 26 0 0 0 4-4.5q1.573-.738 3 .5 3.178-3.213 7-5 12.276.488 24-1" style="opacity:.998"/><path fill="#970e75" d="M463.5 486.5q6.061 50.639-17 96-40.17 60.996-114 66l-34-2q21.006.25 42-.5 14.026-1.164 27-5.5 9.247-2.071 17-7 49.804-21.304 69-72a123.4 123.4 0 0 0 7-27 275 275 0 0 0 2-41q-.452-3.839 1-7" style="opacity:.898"/><path fill="#6428a2" d="M747.5 592.5q2 1 0 0" style="opacity:.004"/><path fill="#861497" d="M533.5 579.5h1v66q-1-15.262-2-31-1.561 3.736-2.5 0a456 456 0 0 0-4 3l-3-2a11.3 11.3 0 0 1-1.5 3.5q1.73 1.37-.5 2.5l-1-1a1963 1963 0 0 1-4 7q-1.619-2.84-4-1 1.191 2.979-1.5 5.5l1 1a15.7 15.7 0 0 0-4 2.5 4.46 4.46 0 0 1-1.5-2q-1.67 1.89-.5 3.5-1.13 2.23-2.5.5-1.08 2.418.5 4.5l-2 1a31 31 0 0 0 3 3.5h-21v-7q1.185 1.663 1.5 4 2.317 1.982 3.5-1-3.41-4.248-.5-9l1 1q2.153-2.567 5.5-3.5l-1-1q2.201-1.647 2.5-4.5 1.256 2.26 3.5 1.5-2-2.76.5-1.5a56 56 0 0 0 4.5-5.5l-2-1q3.137-2.512 6.5-1.5a6.98 6.98 0 0 1 3.5-2.5q-1.752-2.108 1-3.5-1.966-1.137-1.5-3l5 1q.896-3.972 5-7l1 2q.892-2.098-.5-4 1.989.442 4-1.5-3.217-1.114-.5-2.5 2.244 2.754 5.5 2.5-1.711-1.112 0-2.5a14.7 14.7 0 0 0-5-1.5q3.064-1.395 5.5-1.5a45.6 45.6 0 0 0 1.5-14" style="opacity:.998"/><path fill="#6327a2" d="M747.5 595.5q2 1 0 0" style="opacity:.004"/><path fill="#b81993" d="M407.5 551.5a73.6 73.6 0 0 1-3.5 10l-1-2q-1.964 3.586-3 0a28 28 0 0 1-1.5 5q1.321 2.206 4 2.5l-1.5 1.5q-3.38-.668-7.5-.5-.55 2.635 2.5 4.5 1.077-1.426 2.5-.5-3.79 4.659-5.5-.5-2.426 1.554-.5 3.5l-5 1q-2 1.5 0 3-5.845 1.21-2 5-3.43-.698-6.5-.5l-2 2q-1.077-1.426-2.5-.5 3.702 2.382.5 5.5a20.9 20.9 0 0 0-6.5 3q-2.206-1.321-2.5-4-.939 3.736-2.5 0-2.678 2.349-6.5 6-5.77-3.949-11 1l-1-1q-.476 2.701-2 1a29 29 0 0 1-1.5 4q1.575 2.403-2 2.5 5.151 2.275 0 5.5a31 31 0 0 1-4 3q3.736 1.561 0 2.5l1 1q-4.9-.094-6.5 4.5-2.52-1.655-4.5 1-2.484-2.283-3.5 1l-1-1-5 5-1-2a15.3 15.3 0 0 1-4.5 1.5l1 1q-1.068 3.04-3 3 .608 1.418 2 2-3.294 1.833-4.5 5.5-.435-2.316-2-4a135 135 0 0 1-5.5 6.5q1.73 1.37-.5 2.5l-1-1q-.397 2.495 1.5 4.5-1.374.417-2 1.5h-27q.425-1.184 1.5-2 4.57 1.117 9 1-.263-3.535-.5-6.5 4.293-4.93-2-7l2-1q-1.493-3.082 2.5-3.5 4.297 3.931 5.5-2-3.722-2.04 1-3 3.088 3.279 7 .5-.357-2.967-4-5 5.503 1.228 11-.5.699-2.552 0-4.5 1.823-3.144 2.5.5 2.259-4.46 5-1 .435-2.316 2-4 1.676.247 3.5 1 1.373-3.72 4.5-2-.116-1.857.5-3 1.419.73 3 1a15.8 15.8 0 0 1 5-3q2.888.135 3.5 3-.58-3.411-.5-6.5 1.866-.684 2.5 1.5.536-3.383 3.5-6.5-1.884-.625-2-2.5 39.781-3.375 62-36 2.455 1.077 5 .5 2.84-1.619 1-4 2.067-2.001 4-.5" style="opacity:.998"/><path fill="#6226a0" d="M747.5 597.5q1.538.595.5 2a2.43 2.43 0 0 1-.5-2" style="opacity:.004"/><path fill="#cb1c8c" d="M201.5 620.5v8a169 169 0 0 1-2-6 67 67 0 0 0-5.5 2q-1.61-1.17-3.5.5a7.3 7.3 0 0 0 3 2l-1.5 1.5q-4.113-1.119-7.5 0-1.817 1.16 0 2.5a4.93 4.93 0 0 1-3 .5 4.93 4.93 0 0 1-.5 3q-2.039-5.175-6.5-1.5l1 1a11.3 11.3 0 0 0-1.5 3.5q-.465-6.338-5.5-3.5 1.73 1.37-.5 2.5a3.94 3.94 0 0 0-2-1 441 441 0 0 0-5 3l-1-3q-2.915 5.98-8 2-.625 1.884-2.5 2-.69-10.765 1.5-21l1 1q1.26-4.446 3-1a81 81 0 0 1 6.5 0 15 15 0 0 0 3.5-3q1 6 2 0 2.742 3.46 5-1 2.241 1.87 4.5 0a28 28 0 0 0 1.5-5q2.101 2.538 5.5 2 .084-4.341 2.5-8 .623 2.686 3 4 2.329-3.29 6.5-3.5l-2-1a21.4 21.4 0 0 1 5 0q-4.399-3.526 1-3 .975 10.399 2 20.5" style="opacity:.998"/><path fill="#871c9b" d="M563.5 603.5q2 1 0 0" style="opacity:.004"/><path fill="#871b9c" d="M563.5 605.5q2 1 0 0" style="opacity:.004"/><path fill="#6328a0" d="M747.5 605.5q1.61 1.126.5 3a4.93 4.93 0 0 1-.5-3" style="opacity:.004"/><path fill="#6e0b7a" d="M566.5 392.5h1v154a2602 2602 0 0 0-1 102 3843 3843 0 0 1-1-124q1.498-65.745 1-132" style="opacity:.598"/><path fill="#6c139a" d="M614.5 602.5v44h-41q.626-1.083 2-1.5-1.87-2.187 0-4.5-2.58-2.15-6-2.5 6-2 0-4 1.238-2.532 3-.5a10.3 10.3 0 0 1 1.5 4 20.2 20.2 0 0 1 1.5-6q4.047-1.797 5.5-6a7.3 7.3 0 0 1 2 3l2.5-3a4.46 4.46 0 0 1 1.5 2 6.98 6.98 0 0 1 2.5-3.5 20.2 20.2 0 0 1-6-1.5l.5-1q1.903.174 4 1a137 137 0 0 1 8-9 8.9 8.9 0 0 1 3 4q-.588-6.637 4.5-10.5l-1-1q1.866-.684 2.5 1.5.75-1.75 2.5-2.5-3.567-1.461 1-2a3.65 3.65 0 0 1-1-1.5 39.5 39.5 0 0 1 4.5-6q-.163 3.733 2.5 7" style="opacity:.998"/><path fill="#6832ac" d="M885.5 551.5q1.184.425 2 1.5a667 667 0 0 0 0 66 8034 8034 0 0 1-2 29.5z" style="opacity:.033"/><path fill="#8e1fa0" d="M537.5 608.5q2 1 0 0" style="opacity:.004"/><path fill="#b11893" d="M359.5 600.5q-2.052 3.673-3.5 9-2.415.555-4.5-2 .28 1.975-2 4-1.824-.753-3.5-1-.08 6.55-7.5 6.5.686.621 1 1.5-3.454 4.354 3 2.5-1.794-.981 0-1.5 2.709 2.038 4.5-1 .41 2.743 2.5 4.5-1.767 1.45-4 1.5.017-1.412-1.5-2a1984 1984 0 0 1-4 3l-1-1q-3.05 1.865-2.5 4.5 2.99-.348 5.5.5 1.87-3.571 1 1-3.018.037-6 0-8.647 4.004 0 3a7.3 7.3 0 0 1 2 3l5-4q1.718.178 3.5 1-.116 1.875-2 2.5 2.594 2.684 2 6.5 2.217.393 4-1a4.46 4.46 0 0 0-2-1.5 26.7 26.7 0 0 0 6.5-1.5l1 2q1.5-2 3 0l2-2q2.167 2.483 5.5 2-12.974 4.336-27 5.5-20.994.75-42 .5h-2q.626-1.083 2-1.5-1.897-2.005-1.5-4.5l1 1q2.23-1.13.5-2.5a135 135 0 0 0 5.5-6.5q1.565 1.684 2 4 1.206-3.667 4.5-5.5-1.392-.582-2-2 1.932.04 3-3l-1-1a15.3 15.3 0 0 0 4.5-1.5l1 2 5-5 1 1q1.016-3.283 3.5-1 1.98-2.655 4.5-1 1.6-4.594 6.5-4.5l-1-1q3.736-.939 0-2.5a31 31 0 0 0 4-3q.595 1.538 2 .5a24.3 24.3 0 0 1 3.5-3.5l1.5.5q-3.644.677-.5 2.5a14.5 14.5 0 0 0 4-5q2.5 1.26.5-1.5a9.5 9.5 0 0 0 2.5-1.5q2.56-1.902 6.5 0" style="opacity:.998"/><path fill="#841c9c" d="M563.5 609.5q2 1 0 0" style="opacity:.004"/><path fill="#73139b" d="M614.5 578.5v24q-2.663-3.267-2.5-7a39.5 39.5 0 0 0-4.5 6 3.65 3.65 0 0 0 1 1.5q-4.567.539-1 2-1.75.75-2.5 2.5-.634-2.184-2.5-1.5l1 1q-5.088 3.863-4.5 10.5a8.9 8.9 0 0 0-3-4 137 137 0 0 0-8 9q-2.097-.826-4-1l-.5 1a20.2 20.2 0 0 0 6 1.5 6.98 6.98 0 0 0-2.5 3.5 4.46 4.46 0 0 0-1.5-2l-2.5 3a7.3 7.3 0 0 0-2-3q-1.453 4.203-5.5 6a20.2 20.2 0 0 0-1.5 6 10.3 10.3 0 0 0-1.5-4q-1.762-2.032-3 .5 6 2 0 4 3.42.35 6 2.5-1.87 2.313 0 4.5-1.374.417-2 1.5h-6v-28q1.185-1.663 1.5-4l3 2a26.6 26.6 0 0 1 7.5-3q1.87-2.259 0-4.5 1.423-.926 2.5.5a6.98 6.98 0 0 1 2.5-3.5q-3.601-1.207.5-2.5 1.109 1.611 3 2 4.607-2.502 2.5-7.5 2.668 1.469 5-1-3.567-1.461 1-2l-1-1a8.2 8.2 0 0 0 4-2.5 4.46 4.46 0 0 1 1.5 2l-1-7q5.799-1.27 8.5-6.5l-2-1q2.701-.476 1-2 4.182-1.09 4.5-5.5l1.5 1.5q.01 2.374-1 5a2.43 2.43 0 0 0 2 .5" style="opacity:.998"/><path fill="#63289f" d="M747.5 609.5q2 1 0 0" style="opacity:.004"/><path fill="#851b9b" d="M563.5 611.5q2 1 0 0" style="opacity:.008"/><path fill="#cd258c" d="M231.5 612.5q2 1 0 0" style="opacity:.004"/><path fill="#a71895" d="M453.5 561.5q-19.196 50.696-69 72-5.735-3.836.5-6 .901-2.197-1.5-3-2.54 2.668-6 1.5 1.75-.75 2.5-2.5 1.61 1.17 3.5-.5l-1-1q1.22-2.827 4-2-3.143.834-.5 1.5a30.8 30.8 0 0 0 8-5l1 1q.539-4.567 2-1 3.183-1.08 1.5-3.5 5.86-1.84 2-6.5 3.855-3.99 4.5 2-.848-9.531 5-3a29.5 29.5 0 0 1 2.5-4.5q1.866-.684 2.5 1.5a14.5 14.5 0 0 1 4-5l1 2 1-4a108 108 0 0 1 10.5-8 26.7 26.7 0 0 1 7-1.5l-3-1q1.046-3.795 5-7 2.392.926 4-1-4.124-2.02-1-4-1.89-2.72 0-5.5 1.848-.967 4-.5a15.3 15.3 0 0 0 1.5-4.5l1 1q1.224-1.984 3.5-2" style="opacity:1"/><path fill="#851c9a" d="M563.5 613.5q2 1 0 0" style="opacity:.004"/><path fill="#62289f" d="M747.5 613.5q1.538.595.5 2a2.43 2.43 0 0 1-.5-2" style="opacity:.006"/><path fill="#3d1397" d="M883.5 612.5v34h-44q-2.128-1.426-5-1v-9a2.43 2.43 0 0 1 2 .5q-.21 1.896 0 3.5 1.096-3.457 4-5.5l-1-1a11.3 11.3 0 0 0 3.5-1.5v4q2.5-2 5 0l1-3q1.162 2.584 4 3a15.9 15.9 0 0 1 6.5-1q-.255-1.983 1-3.5l-2-1q2.303-.745 4.5.5a16.2 16.2 0 0 0 3.5-1.5q-3.618-3.053 2-3l-1-1q4.363-3.053 7.5 1.5a39 39 0 0 1 4.5-4.5l-3-1.5-1 2q-1.329-1.238-1-3 2.217.393 4-1a37 37 0 0 1 2-4.5 47.7 47.7 0 0 1-1-9.5q.08-5.159 2-9.5-1.524-.779-2-2.5 2.644-1.27 2.5-5 .256 12.265 1.5 24" style="opacity:.998"/><path fill="#8c209d" d="M537.5 616.5q2 1 0 0" style="opacity:.004"/><path fill="#801397" d="M534.5 645.5q-14.728 1.49-30 1a31 31 0 0 1-3-3.5l2-1q-1.58-2.082-.5-4.5 1.37 1.73 2.5-.5-1.17-1.61.5-3.5a4.46 4.46 0 0 0 1.5 2 15.7 15.7 0 0 1 4-2.5l-1-1q2.691-2.521 1.5-5.5 2.381-1.84 4 1 2.014-3.508 4-7l1 1q2.23-1.13.5-2.5a11.3 11.3 0 0 0 1.5-3.5l3 2q1.705-1.296 4-3 .939 3.736 2.5 0 1 15.738 2 31" style="opacity:.998"/><path fill="#d6328e" d="M144.5 619.5q2 1 0 0" style="opacity:.004"/><path fill="#5c097c" d="M616.5 500.5q.471 41.616 0 84a379 379 0 0 0 0 55q1.509.657 0 2l-2 5v-117z" style="opacity:.994"/><path fill="#8b209c" d="M537.5 621.5q2 1 0 0" style="opacity:.004"/><path fill="#632a9e" d="M747.5 619.5q1.647 1.651.5 4a8.4 8.4 0 0 1-.5-4" style="opacity:.006"/><path fill="#c41b8b" d="M201.5 628.5v18h-52v-7q1.875-.116 2.5-2 5.085 3.98 8-2l1 3a441 441 0 0 1 5-3 3.94 3.94 0 0 1 2 1q2.23-1.13.5-2.5 5.035-2.838 5.5 3.5a11.3 11.3 0 0 1 1.5-3.5l-1-1q4.461-3.675 6.5 1.5a4.93 4.93 0 0 0 .5-3 4.93 4.93 0 0 0 3-.5q-1.817-1.34 0-2.5 3.387-1.119 7.5 0l1.5-1.5a7.3 7.3 0 0 1-3-2q1.89-1.67 3.5-.5a67 67 0 0 1 5.5-2 169 169 0 0 0 2 6" style="opacity:.996"/><path fill="#421399" d="M801.5 584.5h1v62h-49q-.25-9.513.5-19-.636 7.398 4.5 3-1.635-1.664 0-3 2.664 1.223 2 3.5 1.5 1 3 0-1.426-1.077-.5-2.5a7.25 7.25 0 0 0 2.5 2q1.996-1.639 2.5-4l1 1q2.23-1.13.5-2.5 2.8-1.067 4.5 1.5 1.581-3.38 4.5-1 4.91-.843 3-5a4.46 4.46 0 0 1 1.5-2q1.72 1.437 3-1 1.461 3.567 2-1l1 1a21.5 21.5 0 0 0 5-6l3 1 1-3 1 1a4.46 4.46 0 0 1 1.5-2 145 145 0 0 0 1-24" style="opacity:.997"/><path fill="#821f99" d="M563.5 627.5q2 1 0 0" style="opacity:.004"/><path fill="#662e9d" d="M747.5 627.5q2 1 0 0" style="opacity:.004"/><path fill="#831f99" d="M563.5 629.5q2 1 0 0" style="opacity:.004"/><path fill="#642e9e" d="M747.5 629.5q1.538.595.5 2a2.43 2.43 0 0 1-.5-2" style="opacity:.006"/><path fill="#5e0264" d="M534.5 568.5h1v80h-53q-.258-1.487 1-2h21q15.272.49 30-1v-77" style="opacity:.99"/><path fill="#8a1383" d="M483.5 567.5v79q-1.258.513-1 2-4.363-.989-1-2.5-1.728-10.322 0-20a22.7 22.7 0 0 0-2-5l2-2a1362 1362 0 0 1 0-50.5q.512-1.257 2-1" style="opacity:1"/><path fill="#81209c" d="M563.5 633.5q2 1 0 0" style="opacity:.004"/><path fill="#b20d6e" d="M235.5 606.5v40q-1.257.513-1 2a421 421 0 0 1-1-41z" style="opacity:1"/><path fill="#842098" d="M563.5 635.5q2 1 0 0" style="opacity:.004"/><path fill="#67339d" d="M747.5 635.5q2 1 0 0" style="opacity:.004"/><path fill="#8b239e" d="M537.5 636.5q1.538.595.5 2a2.43 2.43 0 0 1-.5-2" style="opacity:.004"/><path fill="#6934a0" d="M747.5 637.5q1.538.595.5 2a2.43 2.43 0 0 1-.5-2" style="opacity:.004"/><path fill="#8a269b" d="M537.5 640.5q2 1 0 0" style="opacity:.004"/><path fill="#b50455" d="M147.5 519.5h1v127l3 2h-4z" style="opacity:1"/><path fill="#703fa1" d="M747.5 645.5q2 1 0 0" style="opacity:.004"/><path fill="#592a99" d="M805.5 645.5q1.184.425 2 1.5-1.974.792-2-1.5" style="opacity:.009"/><path fill="#a10a6d" d="M235.5 646.5h63l34 2q-25.959.021-51 0z" style="opacity:.992"/><path fill="#a8065b" d="M201.5 561.5h1v87q-24.815.416-51 0l-3-2h53v-85" style="opacity:.97"/><path fill="#9e0861" d="m235.5 646.5 46 2q-23.034.332-47 0-.257-1.487 1-2" style="opacity:.957"/><path fill="#4f056a" d="M567.5 546.5v100h47l2-5q2.117 4.236-.5 8a619 619 0 0 0-49.5-1q-.498-51.257 1-102" style="opacity:.914"/><path fill="#26045f" d="M751.5 470.5a3873 3873 0 0 0 2 176h49q0 1 1 1-25.25 1.029-52.5 2-.598-.342-.5-1-.511-102.013 1-178" style="opacity:.941"/><path fill="#1d0452" d="M884.5 479.5h1v169q-26.622-.207-53 .5l-2-10a130 130 0 0 0 1-19.5h1v28h52z" style="opacity:.946"/><path fill="#fefffe" d="M406.5 985.5q2 1 0 0" style="opacity:.004"/></svg>